<svg width="618" height="322" viewBox="0 0 618 322" fill="none" xmlns="http://www.w3.org/2000/svg">
<rect width="618" height="320" rx="10" fill="white"/>
<path d="M0.696 19.412C0.744 18.668 1.028 18.088 1.548 17.672C2.076 17.256 2.748 17.048 3.564 17.048C4.124 17.048 4.608 17.148 5.016 17.348C5.424 17.548 5.732 17.82 5.94 18.164C6.148 18.508 6.252 18.896 6.252 19.328C6.252 19.824 6.12 20.248 5.856 20.6C5.592 20.952 5.276 21.188 4.908 21.308V21.356C5.38 21.5 5.748 21.764 6.012 22.148C6.276 22.524 6.408 23.008 6.408 23.6C6.408 24.072 6.3 24.492 6.084 24.86C5.868 25.228 5.548 25.52 5.124 25.736C4.7 25.944 4.192 26.048 3.6 26.048C2.736 26.048 2.024 25.828 1.464 25.388C0.912 24.94 0.616 24.3 0.576 23.468H1.896C1.928 23.892 2.092 24.24 2.388 24.512C2.684 24.776 3.084 24.908 3.588 24.908C4.076 24.908 4.452 24.776 4.716 24.512C4.98 24.24 5.112 23.892 5.112 23.468C5.112 22.908 4.932 22.512 4.572 22.28C4.22 22.04 3.676 21.92 2.94 21.92H2.628V20.792H2.952C3.6 20.784 4.092 20.676 4.428 20.468C4.772 20.26 4.944 19.932 4.944 19.484C4.944 19.1 4.82 18.796 4.572 18.572C4.324 18.34 3.972 18.224 3.516 18.224C3.068 18.224 2.72 18.34 2.472 18.572C2.224 18.796 2.076 19.076 2.028 19.412H0.696ZM7.725 21.512C7.725 20.128 7.957 19.048 8.421 18.272C8.893 17.488 9.701 17.096 10.845 17.096C11.989 17.096 12.793 17.488 13.257 18.272C13.729 19.048 13.965 20.128 13.965 21.512C13.965 22.912 13.729 24.008 13.257 24.8C12.793 25.584 11.989 25.976 10.845 25.976C9.701 25.976 8.893 25.584 8.421 24.8C7.957 24.008 7.725 22.912 7.725 21.512ZM12.621 21.512C12.621 20.864 12.577 20.316 12.489 19.868C12.409 19.42 12.241 19.056 11.985 18.776C11.729 18.488 11.349 18.344 10.845 18.344C10.341 18.344 9.961 18.488 9.705 18.776C9.449 19.056 9.277 19.42 9.189 19.868C9.109 20.316 9.069 20.864 9.069 21.512C9.069 22.184 9.109 22.748 9.189 23.204C9.269 23.66 9.437 24.028 9.693 24.308C9.957 24.588 10.341 24.728 10.845 24.728C11.349 24.728 11.729 24.588 11.985 24.308C12.249 24.028 12.421 23.66 12.501 23.204C12.581 22.748 12.621 22.184 12.621 21.512Z" fill="#707070"/>
<path d="M1.476 76.14C2.244 75.476 2.848 74.932 3.288 74.508C3.736 74.076 4.108 73.628 4.404 73.164C4.7 72.7 4.848 72.236 4.848 71.772C4.848 71.292 4.732 70.916 4.5 70.644C4.276 70.372 3.92 70.236 3.432 70.236C2.96 70.236 2.592 70.388 2.328 70.692C2.072 70.988 1.936 71.388 1.92 71.892H0.6C0.624 70.98 0.896 70.284 1.416 69.804C1.944 69.316 2.612 69.072 3.42 69.072C4.292 69.072 4.972 69.312 5.46 69.792C5.956 70.272 6.204 70.912 6.204 71.712C6.204 72.288 6.056 72.844 5.76 73.38C5.472 73.908 5.124 74.384 4.716 74.808C4.316 75.224 3.804 75.708 3.18 76.26L2.64 76.74H6.444V77.88H0.612V76.884L1.476 76.14ZM13.1658 70.428H9.14578V72.816C9.31378 72.592 9.56178 72.404 9.88978 72.252C10.2258 72.1 10.5818 72.024 10.9578 72.024C11.6298 72.024 12.1738 72.168 12.5898 72.456C13.0138 72.744 13.3138 73.108 13.4898 73.548C13.6738 73.988 13.7658 74.452 13.7658 74.94C13.7658 75.532 13.6498 76.06 13.4178 76.524C13.1938 76.98 12.8538 77.34 12.3978 77.604C11.9498 77.868 11.3978 78 10.7418 78C9.86978 78 9.16978 77.784 8.64178 77.352C8.11378 76.92 7.79778 76.348 7.69378 75.636H9.02578C9.11378 76.012 9.30978 76.312 9.61378 76.536C9.91778 76.752 10.2978 76.86 10.7538 76.86C11.3218 76.86 11.7458 76.688 12.0258 76.344C12.3138 76 12.4578 75.544 12.4578 74.976C12.4578 74.4 12.3138 73.96 12.0258 73.656C11.7378 73.344 11.3138 73.188 10.7538 73.188C10.3618 73.188 10.0298 73.288 9.75778 73.488C9.49378 73.68 9.30178 73.944 9.18178 74.28H7.88578V69.228H13.1658V70.428Z" fill="#707070"/>
<path d="M1.476 128.14C2.244 127.476 2.848 126.932 3.288 126.508C3.736 126.076 4.108 125.628 4.404 125.164C4.7 124.7 4.848 124.236 4.848 123.772C4.848 123.292 4.732 122.916 4.5 122.644C4.276 122.372 3.92 122.236 3.432 122.236C2.96 122.236 2.592 122.388 2.328 122.692C2.072 122.988 1.936 123.388 1.92 123.892H0.6C0.624 122.98 0.896 122.284 1.416 121.804C1.944 121.316 2.612 121.072 3.42 121.072C4.292 121.072 4.972 121.312 5.46 121.792C5.956 122.272 6.204 122.912 6.204 123.712C6.204 124.288 6.056 124.844 5.76 125.38C5.472 125.908 5.124 126.384 4.716 126.808C4.316 127.224 3.804 127.708 3.18 128.26L2.64 128.74H6.444V129.88H0.612V128.884L1.476 128.14ZM7.52578 125.512C7.52578 124.128 7.75778 123.048 8.22178 122.272C8.69378 121.488 9.50178 121.096 10.6458 121.096C11.7898 121.096 12.5938 121.488 13.0578 122.272C13.5298 123.048 13.7658 124.128 13.7658 125.512C13.7658 126.912 13.5298 128.008 13.0578 128.8C12.5938 129.584 11.7898 129.976 10.6458 129.976C9.50178 129.976 8.69378 129.584 8.22178 128.8C7.75778 128.008 7.52578 126.912 7.52578 125.512ZM12.4218 125.512C12.4218 124.864 12.3778 124.316 12.2898 123.868C12.2098 123.42 12.0418 123.056 11.7858 122.776C11.5298 122.488 11.1498 122.344 10.6458 122.344C10.1418 122.344 9.76178 122.488 9.50578 122.776C9.24978 123.056 9.07778 123.42 8.98978 123.868C8.90978 124.316 8.86978 124.864 8.86978 125.512C8.86978 126.184 8.90978 126.748 8.98978 127.204C9.06978 127.66 9.23778 128.028 9.49378 128.308C9.75778 128.588 10.1418 128.728 10.6458 128.728C11.1498 128.728 11.5298 128.588 11.7858 128.308C12.0498 128.028 12.2218 127.66 12.3018 127.204C12.3818 126.748 12.4218 126.184 12.4218 125.512Z" fill="#707070"/>
<path d="M0.54 174.5V173.252H3.036V182H1.656V174.5H0.54ZM10.4353 174.428H6.41531V176.816C6.58331 176.592 6.83131 176.404 7.15931 176.252C7.49531 176.1 7.85131 176.024 8.22731 176.024C8.89931 176.024 9.44331 176.168 9.85931 176.456C10.2833 176.744 10.5833 177.108 10.7593 177.548C10.9433 177.988 11.0353 178.452 11.0353 178.94C11.0353 179.532 10.9193 180.06 10.6873 180.524C10.4633 180.98 10.1233 181.34 9.66731 181.604C9.21931 181.868 8.66731 182 8.01131 182C7.13931 182 6.43931 181.784 5.91131 181.352C5.38331 180.92 5.06731 180.348 4.96331 179.636H6.29531C6.38331 180.012 6.57931 180.312 6.88331 180.536C7.18731 180.752 7.56731 180.86 8.02331 180.86C8.59131 180.86 9.01531 180.688 9.29531 180.344C9.58331 180 9.72731 179.544 9.72731 178.976C9.72731 178.4 9.58331 177.96 9.29531 177.656C9.00731 177.344 8.58331 177.188 8.02331 177.188C7.63131 177.188 7.29931 177.288 7.02731 177.488C6.76331 177.68 6.57131 177.944 6.45131 178.28H5.15531V173.228H10.4353V174.428Z" fill="#707070"/>
<path d="M0.54 226.5V225.252H3.036V234H1.656V226.5H0.54ZM4.79531 229.512C4.79531 228.128 5.02731 227.048 5.49131 226.272C5.96331 225.488 6.77131 225.096 7.91531 225.096C9.05931 225.096 9.86331 225.488 10.3273 226.272C10.7993 227.048 11.0353 228.128 11.0353 229.512C11.0353 230.912 10.7993 232.008 10.3273 232.8C9.86331 233.584 9.05931 233.976 7.91531 233.976C6.77131 233.976 5.96331 233.584 5.49131 232.8C5.02731 232.008 4.79531 230.912 4.79531 229.512ZM9.69131 229.512C9.69131 228.864 9.64731 228.316 9.55931 227.868C9.47931 227.42 9.31131 227.056 9.05531 226.776C8.79931 226.488 8.41931 226.344 7.91531 226.344C7.41131 226.344 7.03131 226.488 6.77531 226.776C6.51931 227.056 6.34731 227.42 6.25931 227.868C6.17931 228.316 6.13931 228.864 6.13931 229.512C6.13931 230.184 6.17931 230.748 6.25931 231.204C6.33931 231.66 6.50731 232.028 6.76331 232.308C7.02731 232.588 7.41131 232.728 7.91531 232.728C8.41931 232.728 8.79931 232.588 9.05531 232.308C9.31931 232.028 9.49131 231.66 9.57131 231.204C9.65131 230.748 9.69131 230.184 9.69131 229.512Z" fill="#707070"/>
<path d="M6.36 278.428H2.34V280.816C2.508 280.592 2.756 280.404 3.084 280.252C3.42 280.1 3.776 280.024 4.152 280.024C4.824 280.024 5.368 280.168 5.784 280.456C6.208 280.744 6.508 281.108 6.684 281.548C6.868 281.988 6.96 282.452 6.96 282.94C6.96 283.532 6.844 284.06 6.612 284.524C6.388 284.98 6.048 285.34 5.592 285.604C5.144 285.868 4.592 286 3.936 286C3.064 286 2.364 285.784 1.836 285.352C1.308 284.92 0.992 284.348 0.888 283.636H2.22C2.308 284.012 2.504 284.312 2.808 284.536C3.112 284.752 3.492 284.86 3.948 284.86C4.516 284.86 4.94 284.688 5.22 284.344C5.508 284 5.652 283.544 5.652 282.976C5.652 282.4 5.508 281.96 5.22 281.656C4.932 281.344 4.508 281.188 3.948 281.188C3.556 281.188 3.224 281.288 2.952 281.488C2.688 281.68 2.496 281.944 2.376 282.28H1.08V277.228H6.36V278.428Z" fill="#707070"/>
<rect x="44" y="52" width="40" height="232" rx="2" fill="#8CDBDC"/>
<path d="M60.684 309.66V318H59.316V312.288L56.772 318H55.824L53.268 312.288V318H51.9V309.66H53.376L56.304 316.2L59.22 309.66H60.684ZM61.906 314.664C61.906 314 62.042 313.412 62.314 312.9C62.594 312.388 62.97 311.992 63.442 311.712C63.922 311.424 64.45 311.28 65.026 311.28C65.546 311.28 65.998 311.384 66.382 311.592C66.774 311.792 67.086 312.044 67.318 312.348V311.388H68.698V318H67.318V317.016C67.086 317.328 66.77 317.588 66.37 317.796C65.97 318.004 65.514 318.108 65.002 318.108C64.434 318.108 63.914 317.964 63.442 317.676C62.97 317.38 62.594 316.972 62.314 316.452C62.042 315.924 61.906 315.328 61.906 314.664ZM67.318 314.688C67.318 314.232 67.222 313.836 67.03 313.5C66.846 313.164 66.602 312.908 66.298 312.732C65.994 312.556 65.666 312.468 65.314 312.468C64.962 312.468 64.634 312.556 64.33 312.732C64.026 312.9 63.778 313.152 63.586 313.488C63.402 313.816 63.31 314.208 63.31 314.664C63.31 315.12 63.402 315.52 63.586 315.864C63.778 316.208 64.026 316.472 64.33 316.656C64.642 316.832 64.97 316.92 65.314 316.92C65.666 316.92 65.994 316.832 66.298 316.656C66.602 316.48 66.846 316.224 67.03 315.888C67.222 315.544 67.318 315.144 67.318 314.688ZM76.3268 311.388L72.2708 321.108H70.8548L72.1988 317.892L69.5948 311.388H71.1188L72.9788 316.428L74.9108 311.388H76.3268Z" fill="#707070"/>
<rect x="108" width="1" height="296" rx="0.5" fill="#EFEFEF"/>
<rect x="129" y="108" width="40" height="176" rx="2" fill="#FCD05E"/>
<path d="M139.448 309.66V315.672C139.448 316.416 139.22 317.004 138.764 317.436C138.316 317.868 137.724 318.084 136.988 318.084C136.252 318.084 135.656 317.868 135.2 317.436C134.752 317.004 134.528 316.416 134.528 315.672H135.908C135.916 316.04 136.008 316.332 136.184 316.548C136.368 316.764 136.636 316.872 136.988 316.872C137.34 316.872 137.608 316.764 137.792 316.548C137.976 316.324 138.068 316.032 138.068 315.672V309.66H139.448ZM147.541 311.388V318H146.173V317.22C145.957 317.492 145.673 317.708 145.321 317.868C144.977 318.02 144.609 318.096 144.217 318.096C143.697 318.096 143.229 317.988 142.813 317.772C142.405 317.556 142.081 317.236 141.841 316.812C141.609 316.388 141.493 315.876 141.493 315.276V311.388H142.849V315.072C142.849 315.664 142.997 316.12 143.293 316.44C143.589 316.752 143.993 316.908 144.505 316.908C145.017 316.908 145.421 316.752 145.717 316.44C146.021 316.12 146.173 315.664 146.173 315.072V311.388H147.541ZM152.562 311.28C153.082 311.28 153.546 311.388 153.954 311.604C154.37 311.82 154.694 312.14 154.926 312.564C155.158 312.988 155.274 313.5 155.274 314.1V318H153.918V314.304C153.918 313.712 153.77 313.26 153.474 312.948C153.178 312.628 152.774 312.468 152.262 312.468C151.75 312.468 151.342 312.628 151.038 312.948C150.742 313.26 150.594 313.712 150.594 314.304V318H149.226V311.388H150.594V312.144C150.818 311.872 151.102 311.66 151.446 311.508C151.798 311.356 152.17 311.28 152.562 311.28ZM162.959 314.532C162.959 314.78 162.943 315.004 162.911 315.204H157.859C157.899 315.732 158.095 316.156 158.447 316.476C158.799 316.796 159.231 316.956 159.743 316.956C160.479 316.956 160.999 316.648 161.303 316.032H162.779C162.579 316.64 162.215 317.14 161.687 317.532C161.167 317.916 160.519 318.108 159.743 318.108C159.111 318.108 158.543 317.968 158.039 317.688C157.543 317.4 157.151 317 156.863 316.488C156.583 315.968 156.443 315.368 156.443 314.688C156.443 314.008 156.579 313.412 156.851 312.9C157.131 312.38 157.519 311.98 158.015 311.7C158.519 311.42 159.095 311.28 159.743 311.28C160.367 311.28 160.923 311.416 161.411 311.688C161.899 311.96 162.279 312.344 162.551 312.84C162.823 313.328 162.959 313.892 162.959 314.532ZM161.531 314.1C161.523 313.596 161.343 313.192 160.991 312.888C160.639 312.584 160.203 312.432 159.683 312.432C159.211 312.432 158.807 312.584 158.471 312.888C158.135 313.184 157.935 313.588 157.871 314.1H161.531Z" fill="#707070"/>
<rect x="193" width="1" height="296" rx="0.5" fill="#EFEFEF"/>
<rect x="214" y="12" width="40" height="272" rx="2" fill="#8CDBDC"/>
<path d="M226.948 309.66V315.672C226.948 316.416 226.72 317.004 226.264 317.436C225.816 317.868 225.224 318.084 224.488 318.084C223.752 318.084 223.156 317.868 222.7 317.436C222.252 317.004 222.028 316.416 222.028 315.672H223.408C223.416 316.04 223.508 316.332 223.684 316.548C223.868 316.764 224.136 316.872 224.488 316.872C224.84 316.872 225.108 316.764 225.292 316.548C225.476 316.324 225.568 316.032 225.568 315.672V309.66H226.948ZM235.041 311.388V318H233.673V317.22C233.457 317.492 233.173 317.708 232.821 317.868C232.477 318.02 232.109 318.096 231.717 318.096C231.197 318.096 230.729 317.988 230.313 317.772C229.905 317.556 229.581 317.236 229.341 316.812C229.109 316.388 228.993 315.876 228.993 315.276V311.388H230.349V315.072C230.349 315.664 230.497 316.12 230.793 316.44C231.089 316.752 231.493 316.908 232.005 316.908C232.517 316.908 232.921 316.752 233.217 316.44C233.521 316.12 233.673 315.664 233.673 315.072V311.388H235.041ZM238.094 309.12V318H236.726V309.12H238.094ZM245.722 311.388L241.666 321.108H240.25L241.594 317.892L238.99 311.388H240.514L242.374 316.428L244.306 311.388H245.722Z" fill="#707070"/>
<rect x="278" width="1" height="296" rx="0.5" fill="#EFEFEF"/>
<rect x="299" y="132" width="40" height="152" rx="2" fill="#8CDBDC"/>
<path d="M312.428 316.296H308.936L308.336 318H306.908L309.896 309.648H311.48L314.468 318H313.028L312.428 316.296ZM312.044 315.18L310.688 311.304L309.32 315.18H312.044ZM321.635 311.388V318H320.267V317.22C320.051 317.492 319.767 317.708 319.415 317.868C319.071 318.02 318.703 318.096 318.311 318.096C317.791 318.096 317.323 317.988 316.907 317.772C316.499 317.556 316.175 317.236 315.935 316.812C315.703 316.388 315.587 315.876 315.587 315.276V311.388H316.943V315.072C316.943 315.664 317.091 316.12 317.387 316.44C317.683 316.752 318.087 316.908 318.599 316.908C319.111 316.908 319.515 316.752 319.811 316.44C320.115 316.12 320.267 315.664 320.267 315.072V311.388H321.635ZM325.984 311.28C326.496 311.28 326.948 311.384 327.34 311.592C327.74 311.792 328.052 312.044 328.276 312.348V311.388H329.656V318.108C329.656 318.716 329.528 319.256 329.272 319.728C329.016 320.208 328.644 320.584 328.156 320.856C327.676 321.128 327.1 321.264 326.428 321.264C325.532 321.264 324.788 321.052 324.196 320.628C323.604 320.212 323.268 319.644 323.188 318.924H324.544C324.648 319.268 324.868 319.544 325.204 319.752C325.548 319.968 325.956 320.076 326.428 320.076C326.98 320.076 327.424 319.908 327.76 319.572C328.104 319.236 328.276 318.748 328.276 318.108V317.004C328.044 317.316 327.728 317.58 327.328 317.796C326.936 318.004 326.488 318.108 325.984 318.108C325.408 318.108 324.88 317.964 324.4 317.676C323.928 317.38 323.552 316.972 323.272 316.452C323 315.924 322.864 315.328 322.864 314.664C322.864 314 323 313.412 323.272 312.9C323.552 312.388 323.928 311.992 324.4 311.712C324.88 311.424 325.408 311.28 325.984 311.28ZM328.276 314.688C328.276 314.232 328.18 313.836 327.988 313.5C327.804 313.164 327.56 312.908 327.256 312.732C326.952 312.556 326.624 312.468 326.272 312.468C325.92 312.468 325.592 312.556 325.288 312.732C324.984 312.9 324.736 313.152 324.544 313.488C324.36 313.816 324.268 314.208 324.268 314.664C324.268 315.12 324.36 315.52 324.544 315.864C324.736 316.208 324.984 316.472 325.288 316.656C325.6 316.832 325.928 316.92 326.272 316.92C326.624 316.92 326.952 316.832 327.256 316.656C327.56 316.48 327.804 316.224 327.988 315.888C328.18 315.544 328.276 315.144 328.276 314.688Z" fill="#707070"/>
<rect x="363" width="1" height="296" rx="0.5" fill="#EFEFEF"/>
<rect x="384" y="52" width="40" height="232" rx="2" fill="#8CDBDC"/>
<path d="M396.148 318.084C395.588 318.084 395.084 317.988 394.636 317.796C394.188 317.596 393.836 317.316 393.58 316.956C393.324 316.596 393.196 316.176 393.196 315.696H394.66C394.692 316.056 394.832 316.352 395.08 316.584C395.336 316.816 395.692 316.932 396.148 316.932C396.62 316.932 396.988 316.82 397.252 316.596C397.516 316.364 397.648 316.068 397.648 315.708C397.648 315.428 397.564 315.2 397.396 315.024C397.236 314.848 397.032 314.712 396.784 314.616C396.544 314.52 396.208 314.416 395.776 314.304C395.232 314.16 394.788 314.016 394.444 313.872C394.108 313.72 393.82 313.488 393.58 313.176C393.34 312.864 393.22 312.448 393.22 311.928C393.22 311.448 393.34 311.028 393.58 310.668C393.82 310.308 394.156 310.032 394.588 309.84C395.02 309.648 395.52 309.552 396.088 309.552C396.896 309.552 397.556 309.756 398.068 310.164C398.588 310.564 398.876 311.116 398.932 311.82H397.42C397.396 311.516 397.252 311.256 396.988 311.04C396.724 310.824 396.376 310.716 395.944 310.716C395.552 310.716 395.232 310.816 394.984 311.016C394.736 311.216 394.612 311.504 394.612 311.88C394.612 312.136 394.688 312.348 394.84 312.516C395 312.676 395.2 312.804 395.44 312.9C395.68 312.996 396.008 313.1 396.424 313.212C396.976 313.364 397.424 313.516 397.768 313.668C398.12 313.82 398.416 314.056 398.656 314.376C398.904 314.688 399.028 315.108 399.028 315.636C399.028 316.06 398.912 316.46 398.68 316.836C398.456 317.212 398.124 317.516 397.684 317.748C397.252 317.972 396.74 318.084 396.148 318.084ZM406.582 314.532C406.582 314.78 406.566 315.004 406.534 315.204H401.482C401.522 315.732 401.718 316.156 402.07 316.476C402.422 316.796 402.854 316.956 403.366 316.956C404.102 316.956 404.622 316.648 404.926 316.032H406.402C406.202 316.64 405.838 317.14 405.31 317.532C404.79 317.916 404.142 318.108 403.366 318.108C402.734 318.108 402.166 317.968 401.662 317.688C401.166 317.4 400.774 317 400.486 316.488C400.206 315.968 400.066 315.368 400.066 314.688C400.066 314.008 400.202 313.412 400.474 312.9C400.754 312.38 401.142 311.98 401.638 311.7C402.142 311.42 402.718 311.28 403.366 311.28C403.99 311.28 404.546 311.416 405.034 311.688C405.522 311.96 405.902 312.344 406.174 312.84C406.446 313.328 406.582 313.892 406.582 314.532ZM405.154 314.1C405.146 313.596 404.966 313.192 404.614 312.888C404.262 312.584 403.826 312.432 403.306 312.432C402.834 312.432 402.43 312.584 402.094 312.888C401.758 313.184 401.558 313.588 401.494 314.1H405.154ZM409.176 312.36C409.408 312.056 409.724 311.8 410.124 311.592C410.524 311.384 410.976 311.28 411.48 311.28C412.056 311.28 412.58 311.424 413.052 311.712C413.532 311.992 413.908 312.388 414.18 312.9C414.452 313.412 414.588 314 414.588 314.664C414.588 315.328 414.452 315.924 414.18 316.452C413.908 316.972 413.532 317.38 413.052 317.676C412.58 317.964 412.056 318.108 411.48 318.108C410.976 318.108 410.528 318.008 410.136 317.808C409.744 317.6 409.424 317.344 409.176 317.04V321.144H407.808V311.388H409.176V312.36ZM413.196 314.664C413.196 314.208 413.1 313.816 412.908 313.488C412.724 313.152 412.476 312.9 412.164 312.732C411.86 312.556 411.532 312.468 411.18 312.468C410.836 312.468 410.508 312.556 410.196 312.732C409.892 312.908 409.644 313.164 409.452 313.5C409.268 313.836 409.176 314.232 409.176 314.688C409.176 315.144 409.268 315.544 409.452 315.888C409.644 316.224 409.892 316.48 410.196 316.656C410.508 316.832 410.836 316.92 411.18 316.92C411.532 316.92 411.86 316.832 412.164 316.656C412.476 316.472 412.724 316.208 412.908 315.864C413.1 315.52 413.196 315.12 413.196 314.664Z" fill="#707070"/>
<rect x="448" width="1" height="296" rx="0.5" fill="#EFEFEF"/>
<rect x="469" y="172" width="40" height="112" rx="2" fill="#FCD05E"/>
<path d="M483.204 318.084C482.428 318.084 481.712 317.904 481.056 317.544C480.408 317.176 479.892 316.668 479.508 316.02C479.132 315.364 478.944 314.628 478.944 313.812C478.944 312.996 479.132 312.264 479.508 311.616C479.892 310.968 480.408 310.464 481.056 310.104C481.712 309.736 482.428 309.552 483.204 309.552C483.988 309.552 484.704 309.736 485.352 310.104C486.008 310.464 486.524 310.968 486.9 311.616C487.276 312.264 487.464 312.996 487.464 313.812C487.464 314.628 487.276 315.364 486.9 316.02C486.524 316.668 486.008 317.176 485.352 317.544C484.704 317.904 483.988 318.084 483.204 318.084ZM483.204 316.896C483.756 316.896 484.248 316.772 484.68 316.524C485.112 316.268 485.448 315.908 485.688 315.444C485.936 314.972 486.06 314.428 486.06 313.812C486.06 313.196 485.936 312.656 485.688 312.192C485.448 311.728 485.112 311.372 484.68 311.124C484.248 310.876 483.756 310.752 483.204 310.752C482.652 310.752 482.16 310.876 481.728 311.124C481.296 311.372 480.956 311.728 480.708 312.192C480.468 312.656 480.348 313.196 480.348 313.812C480.348 314.428 480.468 314.972 480.708 315.444C480.956 315.908 481.296 316.268 481.728 316.524C482.16 316.772 482.652 316.896 483.204 316.896ZM488.234 314.688C488.234 314.008 488.37 313.412 488.642 312.9C488.922 312.38 489.306 311.98 489.794 311.7C490.282 311.42 490.842 311.28 491.474 311.28C492.274 311.28 492.934 311.472 493.454 311.856C493.982 312.232 494.338 312.772 494.522 313.476H493.046C492.926 313.148 492.734 312.892 492.47 312.708C492.206 312.524 491.874 312.432 491.474 312.432C490.914 312.432 490.466 312.632 490.13 313.032C489.802 313.424 489.638 313.976 489.638 314.688C489.638 315.4 489.802 315.956 490.13 316.356C490.466 316.756 490.914 316.956 491.474 316.956C492.266 316.956 492.79 316.608 493.046 315.912H494.522C494.33 316.584 493.97 317.12 493.442 317.52C492.914 317.912 492.258 318.108 491.474 318.108C490.842 318.108 490.282 317.968 489.794 317.688C489.306 317.4 488.922 317 488.642 316.488C488.37 315.968 488.234 315.368 488.234 314.688ZM497.361 312.504V316.164C497.361 316.412 497.417 316.592 497.529 316.704C497.649 316.808 497.849 316.86 498.129 316.86H498.969V318H497.889C497.273 318 496.801 317.856 496.473 317.568C496.145 317.28 495.981 316.812 495.981 316.164V312.504H495.201V311.388H495.981V309.744H497.361V311.388H498.969V312.504H497.361Z" fill="#707070"/>
<rect x="533" width="1" height="296" rx="0.5" fill="#EFEFEF"/>
<rect x="554" y="92" width="40" height="192" rx="2" fill="#8CDBDC"/>
<path d="M570.252 318H568.884L564.768 311.772V318H563.4V309.648H564.768L568.884 315.864V309.648H570.252V318ZM574.796 318.108C574.172 318.108 573.608 317.968 573.104 317.688C572.6 317.4 572.204 317 571.916 316.488C571.628 315.968 571.484 315.368 571.484 314.688C571.484 314.016 571.632 313.42 571.928 312.9C572.224 312.38 572.628 311.98 573.14 311.7C573.652 311.42 574.224 311.28 574.856 311.28C575.488 311.28 576.06 311.42 576.572 311.7C577.084 311.98 577.488 312.38 577.784 312.9C578.08 313.42 578.228 314.016 578.228 314.688C578.228 315.36 578.076 315.956 577.772 316.476C577.468 316.996 577.052 317.4 576.524 317.688C576.004 317.968 575.428 318.108 574.796 318.108ZM574.796 316.92C575.148 316.92 575.476 316.836 575.78 316.668C576.092 316.5 576.344 316.248 576.536 315.912C576.728 315.576 576.824 315.168 576.824 314.688C576.824 314.208 576.732 313.804 576.548 313.476C576.364 313.14 576.12 312.888 575.816 312.72C575.512 312.552 575.184 312.468 574.832 312.468C574.48 312.468 574.152 312.552 573.848 312.72C573.552 312.888 573.316 313.14 573.14 313.476C572.964 313.804 572.876 314.208 572.876 314.688C572.876 315.4 573.056 315.952 573.416 316.344C573.784 316.728 574.244 316.92 574.796 316.92ZM582.017 316.776L583.889 311.388H585.341L582.821 318H581.189L578.681 311.388H580.145L582.017 316.776Z" fill="#707070"/>
<path d="M562.5 314.04H585.473V314.64H562.5V314.04Z" fill="#707070"/>
<ellipse opacity="0.2" cx="402.308" cy="102" rx="9.30796" ry="9" fill="#8CDBDC"/>
<ellipse cx="402.307" cy="102" rx="5.17109" ry="5" fill="#1A1818"/>
<g filter="url(#filter0_d_407_30642)">
<path fill-rule="evenodd" clip-rule="evenodd" d="M429.767 83C425.348 83 421.767 86.5817 421.767 91V94.6158L414.868 101.3C414.47 101.686 414.47 102.315 414.868 102.701L421.767 109.385V134C421.767 138.418 425.348 142 429.767 142H527.81C532.228 142 535.81 138.418 535.81 134V91C535.81 86.5817 532.228 83 527.81 83H429.767Z" fill="#272B30"/>
</g>
<path d="M437.21 104.978C438.395 104.026 439.324 103.247 439.996 102.64C440.668 102.024 441.233 101.385 441.69 100.722C442.157 100.05 442.39 99.392 442.39 98.748C442.39 98.1413 442.241 97.6653 441.942 97.32C441.653 96.9653 441.181 96.788 440.528 96.788C439.893 96.788 439.399 96.9887 439.044 97.39C438.699 97.782 438.512 98.3093 438.484 98.972H437.252C437.289 97.9267 437.607 97.1193 438.204 96.55C438.801 95.9807 439.571 95.696 440.514 95.696C441.475 95.696 442.236 95.962 442.796 96.494C443.365 97.026 443.65 97.7587 443.65 98.692C443.65 99.4667 443.417 100.223 442.95 100.96C442.493 101.688 441.97 102.332 441.382 102.892C440.794 103.443 440.043 104.087 439.128 104.824H443.944V105.888H437.21V104.978ZM445.263 104.978C446.448 104.026 447.377 103.247 448.049 102.64C448.721 102.024 449.285 101.385 449.743 100.722C450.209 100.05 450.443 99.392 450.443 98.748C450.443 98.1413 450.293 97.6653 449.995 97.32C449.705 96.9653 449.234 96.788 448.581 96.788C447.946 96.788 447.451 96.9887 447.097 97.39C446.751 97.782 446.565 98.3093 446.537 98.972H445.305C445.342 97.9267 445.659 97.1193 446.257 96.55C446.854 95.9807 447.624 95.696 448.567 95.696C449.528 95.696 450.289 95.962 450.849 96.494C451.418 97.026 451.703 97.7587 451.703 98.692C451.703 99.4667 451.469 100.223 451.003 100.96C450.545 101.688 450.023 102.332 449.435 102.892C448.847 103.443 448.095 104.087 447.181 104.824H451.997V105.888H445.263V104.978ZM460.506 106.098C459.862 106.098 459.283 105.986 458.77 105.762C458.266 105.529 457.869 105.211 457.58 104.81C457.291 104.399 457.141 103.928 457.132 103.396H458.49C458.537 103.853 458.723 104.241 459.05 104.558C459.386 104.866 459.871 105.02 460.506 105.02C461.113 105.02 461.589 104.871 461.934 104.572C462.289 104.264 462.466 103.872 462.466 103.396C462.466 103.023 462.363 102.719 462.158 102.486C461.953 102.253 461.696 102.075 461.388 101.954C461.08 101.833 460.665 101.702 460.142 101.562C459.498 101.394 458.98 101.226 458.588 101.058C458.205 100.89 457.874 100.629 457.594 100.274C457.323 99.91 457.188 99.4247 457.188 98.818C457.188 98.286 457.323 97.8147 457.594 97.404C457.865 96.9933 458.243 96.676 458.728 96.452C459.223 96.228 459.787 96.116 460.422 96.116C461.337 96.116 462.083 96.3447 462.662 96.802C463.25 97.2593 463.581 97.866 463.656 98.622H462.256C462.209 98.2487 462.013 97.922 461.668 97.642C461.323 97.3527 460.865 97.208 460.296 97.208C459.764 97.208 459.33 97.348 458.994 97.628C458.658 97.8987 458.49 98.2813 458.49 98.776C458.49 99.1307 458.588 99.42 458.784 99.644C458.989 99.868 459.237 100.041 459.526 100.162C459.825 100.274 460.24 100.405 460.772 100.554C461.416 100.731 461.934 100.909 462.326 101.086C462.718 101.254 463.054 101.52 463.334 101.884C463.614 102.239 463.754 102.724 463.754 103.34C463.754 103.816 463.628 104.264 463.376 104.684C463.124 105.104 462.751 105.445 462.256 105.706C461.761 105.967 461.178 106.098 460.506 106.098ZM472.629 101.87C472.629 102.113 472.615 102.369 472.587 102.64H466.455C466.501 103.396 466.758 103.989 467.225 104.418C467.701 104.838 468.275 105.048 468.947 105.048C469.497 105.048 469.955 104.922 470.319 104.67C470.692 104.409 470.953 104.063 471.103 103.634H472.475C472.269 104.371 471.859 104.973 471.243 105.44C470.627 105.897 469.861 106.126 468.947 106.126C468.219 106.126 467.565 105.963 466.987 105.636C466.417 105.309 465.969 104.847 465.643 104.25C465.316 103.643 465.153 102.943 465.153 102.15C465.153 101.357 465.311 100.661 465.629 100.064C465.946 99.4667 466.389 99.0093 466.959 98.692C467.537 98.3653 468.2 98.202 468.947 98.202C469.675 98.202 470.319 98.3607 470.879 98.678C471.439 98.9953 471.868 99.434 472.167 99.994C472.475 100.545 472.629 101.17 472.629 101.87ZM471.313 101.604C471.313 101.119 471.205 100.703 470.991 100.358C470.776 100.003 470.482 99.7373 470.109 99.56C469.745 99.3733 469.339 99.28 468.891 99.28C468.247 99.28 467.696 99.4853 467.239 99.896C466.791 100.307 466.534 100.876 466.469 101.604H471.313ZM475.584 99.742C475.836 99.3033 476.21 98.9393 476.704 98.65C477.208 98.3513 477.792 98.202 478.454 98.202C479.136 98.202 479.752 98.3653 480.302 98.692C480.862 99.0187 481.301 99.4807 481.618 100.078C481.936 100.666 482.094 101.352 482.094 102.136C482.094 102.911 481.936 103.601 481.618 104.208C481.301 104.815 480.862 105.286 480.302 105.622C479.752 105.958 479.136 106.126 478.454 106.126C477.801 106.126 477.222 105.981 476.718 105.692C476.224 105.393 475.846 105.025 475.584 104.586V109.64H474.31V98.328H475.584V99.742ZM480.792 102.136C480.792 101.557 480.676 101.053 480.442 100.624C480.209 100.195 479.892 99.868 479.49 99.644C479.098 99.42 478.664 99.308 478.188 99.308C477.722 99.308 477.288 99.4247 476.886 99.658C476.494 99.882 476.177 100.213 475.934 100.652C475.701 101.081 475.584 101.581 475.584 102.15C475.584 102.729 475.701 103.237 475.934 103.676C476.177 104.105 476.494 104.437 476.886 104.67C477.288 104.894 477.722 105.006 478.188 105.006C478.664 105.006 479.098 104.894 479.49 104.67C479.892 104.437 480.209 104.105 480.442 103.676C480.676 103.237 480.792 102.724 480.792 102.136Z" fill="#D6D6D6"/>
<path d="M444.434 125.186C444.434 125.671 444.308 126.129 444.056 126.558C443.813 126.978 443.449 127.328 442.964 127.608C442.488 127.879 441.923 128.037 441.27 128.084V129.218H440.374V128.07C439.441 127.986 438.689 127.706 438.12 127.23C437.551 126.745 437.257 126.091 437.238 125.27H439.338C439.394 125.942 439.739 126.348 440.374 126.488V123.814C439.702 123.646 439.161 123.478 438.75 123.31C438.339 123.142 437.985 122.871 437.686 122.498C437.387 122.125 437.238 121.616 437.238 120.972C437.238 120.16 437.527 119.497 438.106 118.984C438.694 118.471 439.45 118.177 440.374 118.102V116.968H441.27V118.102C442.166 118.177 442.88 118.447 443.412 118.914C443.953 119.381 444.257 120.025 444.322 120.846H442.208C442.18 120.575 442.082 120.342 441.914 120.146C441.755 119.941 441.541 119.796 441.27 119.712V122.358C441.97 122.535 442.521 122.708 442.922 122.876C443.333 123.035 443.687 123.301 443.986 123.674C444.285 124.038 444.434 124.542 444.434 125.186ZM439.282 120.874C439.282 121.182 439.375 121.434 439.562 121.63C439.749 121.817 440.019 121.971 440.374 122.092V119.67C440.038 119.717 439.772 119.843 439.576 120.048C439.38 120.253 439.282 120.529 439.282 120.874ZM441.27 126.516C441.625 126.451 441.9 126.306 442.096 126.082C442.301 125.858 442.404 125.587 442.404 125.27C442.404 124.962 442.306 124.715 442.11 124.528C441.914 124.341 441.634 124.187 441.27 124.066V126.516ZM446.16 119.6V117.794H449.534V128H447.518V119.6H446.16ZM458.331 119.488H453.795V121.882C453.991 121.639 454.271 121.443 454.635 121.294C454.999 121.135 455.386 121.056 455.797 121.056C456.543 121.056 457.155 121.219 457.631 121.546C458.107 121.873 458.452 122.293 458.667 122.806C458.881 123.31 458.989 123.851 458.989 124.43C458.989 125.503 458.681 126.367 458.065 127.02C457.458 127.673 456.59 128 455.461 128C454.397 128 453.547 127.734 452.913 127.202C452.278 126.67 451.919 125.975 451.835 125.116H453.739C453.823 125.489 454.009 125.788 454.299 126.012C454.597 126.236 454.975 126.348 455.433 126.348C455.983 126.348 456.399 126.175 456.679 125.83C456.959 125.485 457.099 125.027 457.099 124.458C457.099 123.879 456.954 123.441 456.665 123.142C456.385 122.834 455.969 122.68 455.419 122.68C455.027 122.68 454.7 122.778 454.439 122.974C454.177 123.17 453.991 123.431 453.879 123.758H452.003V117.766H458.331V119.488ZM461.572 128.098C461.218 128.098 460.924 127.991 460.69 127.776C460.466 127.552 460.354 127.277 460.354 126.95C460.354 126.623 460.466 126.353 460.69 126.138C460.924 125.914 461.218 125.802 461.572 125.802C461.918 125.802 462.202 125.914 462.426 126.138C462.65 126.353 462.762 126.623 462.762 126.95C462.762 127.277 462.65 127.552 462.426 127.776C462.202 127.991 461.918 128.098 461.572 128.098ZM464.117 122.764C464.117 121.149 464.406 119.885 464.985 118.97C465.573 118.055 466.544 117.598 467.897 117.598C469.25 117.598 470.216 118.055 470.795 118.97C471.383 119.885 471.677 121.149 471.677 122.764C471.677 124.388 471.383 125.662 470.795 126.586C470.216 127.51 469.25 127.972 467.897 127.972C466.544 127.972 465.573 127.51 464.985 126.586C464.406 125.662 464.117 124.388 464.117 122.764ZM469.745 122.764C469.745 122.073 469.698 121.495 469.605 121.028C469.521 120.552 469.344 120.165 469.073 119.866C468.812 119.567 468.42 119.418 467.897 119.418C467.374 119.418 466.978 119.567 466.707 119.866C466.446 120.165 466.268 120.552 466.175 121.028C466.091 121.495 466.049 122.073 466.049 122.764C466.049 123.473 466.091 124.071 466.175 124.556C466.259 125.032 466.436 125.419 466.707 125.718C466.978 126.007 467.374 126.152 467.897 126.152C468.42 126.152 468.816 126.007 469.087 125.718C469.358 125.419 469.535 125.032 469.619 124.556C469.703 124.071 469.745 123.473 469.745 122.764ZM473.168 122.764C473.168 121.149 473.457 119.885 474.036 118.97C474.624 118.055 475.594 117.598 476.948 117.598C478.301 117.598 479.267 118.055 479.846 118.97C480.434 119.885 480.728 121.149 480.728 122.764C480.728 124.388 480.434 125.662 479.846 126.586C479.267 127.51 478.301 127.972 476.948 127.972C475.594 127.972 474.624 127.51 474.036 126.586C473.457 125.662 473.168 124.388 473.168 122.764ZM478.796 122.764C478.796 122.073 478.749 121.495 478.656 121.028C478.572 120.552 478.394 120.165 478.124 119.866C477.862 119.567 477.47 119.418 476.948 119.418C476.425 119.418 476.028 119.567 475.758 119.866C475.496 120.165 475.319 120.552 475.226 121.028C475.142 121.495 475.1 122.073 475.1 122.764C475.1 123.473 475.142 124.071 475.226 124.556C475.31 125.032 475.487 125.419 475.758 125.718C476.028 126.007 476.425 126.152 476.948 126.152C477.47 126.152 477.867 126.007 478.138 125.718C478.408 125.419 478.586 125.032 478.67 124.556C478.754 124.071 478.796 123.473 478.796 122.764ZM482.219 122.764C482.219 121.149 482.508 119.885 483.087 118.97C483.675 118.055 484.645 117.598 485.999 117.598C487.352 117.598 488.318 118.055 488.897 118.97C489.485 119.885 489.779 121.149 489.779 122.764C489.779 124.388 489.485 125.662 488.897 126.586C488.318 127.51 487.352 127.972 485.999 127.972C484.645 127.972 483.675 127.51 483.087 126.586C482.508 125.662 482.219 124.388 482.219 122.764ZM487.847 122.764C487.847 122.073 487.8 121.495 487.707 121.028C487.623 120.552 487.445 120.165 487.175 119.866C486.913 119.567 486.521 119.418 485.999 119.418C485.476 119.418 485.079 119.567 484.809 119.866C484.547 120.165 484.37 120.552 484.277 121.028C484.193 121.495 484.151 122.073 484.151 122.764C484.151 123.473 484.193 124.071 484.277 124.556C484.361 125.032 484.538 125.419 484.809 125.718C485.079 126.007 485.476 126.152 485.999 126.152C486.521 126.152 486.918 126.007 487.189 125.718C487.459 125.419 487.637 125.032 487.721 124.556C487.805 124.071 487.847 123.473 487.847 122.764Z" fill="white"/>
<defs>
<filter id="filter0_d_407_30642" x="390.569" y="79" width="169.24" height="107" filterUnits="userSpaceOnUse" color-interpolation-filters="sRGB">
<feFlood flood-opacity="0" result="BackgroundImageFix"/>
<feColorMatrix in="SourceAlpha" type="matrix" values="0 0 0 0 0 0 0 0 0 0 0 0 0 0 0 0 0 0 127 0" result="hardAlpha"/>
<feOffset dy="20"/>
<feGaussianBlur stdDeviation="12"/>
<feColorMatrix type="matrix" values="0 0 0 0 0.6 0 0 0 0 0.607843 0 0 0 0 0.658824 0 0 0 0.18 0"/>
<feBlend mode="normal" in2="BackgroundImageFix" result="effect1_dropShadow_407_30642"/>
<feBlend mode="normal" in="SourceGraphic" in2="effect1_dropShadow_407_30642" result="shape"/>
</filter>
</defs>
</svg>
