<svg width="1128" height="308" viewBox="0 0 1128 308" fill="none" xmlns="http://www.w3.org/2000/svg">
<mask id="mask0_697_19597" style="mask-type:alpha" maskUnits="userSpaceOnUse" x="0" y="0" width="1128" height="308">
<path d="M0 0H1128V308H0V0Z" fill="white"/>
</mask>
<g mask="url(#mask0_697_19597)">
<path opacity="0.15" d="M1346.66 150.816C1346.66 150.816 1288.44 180.99 1257.4 168.82C1226.35 156.65 1216.9 117.818 1131.96 117.818C1047.02 117.818 931.212 194.359 864.768 194.359C798.324 194.359 729.188 120.778 630.175 157.324C531.162 193.87 549.619 217.46 470.993 217.46C392.367 217.46 323.923 72.5056 234.769 73.2047C168.294 73.2047 142.778 210.821 120.614 232.171C98.4507 253.521 36.5205 194.359 -72.9128 194.359C-169.503 194.359 -261.103 80.4557 -354.886 80.4557C-448.669 80.4557 -486.767 201.248 -569.969 201.248C-653.17 201.248 -651.94 157.324 -718.046 157.324C-718.515 232.888 -718.046 308.5 -718.046 308.5H1346.66V150.816Z" fill="url(#paint0_linear_697_19597)"/>
<path d="M1346.66 150.663C1346.66 150.663 1288.44 180.778 1257.39 168.632C1226.34 156.485 1216.89 117.73 1131.94 117.73C1046.99 117.73 931.165 194.121 864.713 194.121C798.261 194.121 729.117 120.684 630.093 157.158C531.069 193.632 549.528 217.175 470.893 217.175C392.259 217.175 323.807 72.507 234.643 73.2047C168.16 73.2047 142.641 210.55 120.475 231.857C98.3089 253.165 36.3717 194.121 -73.074 194.121C-169.675 194.121 -261.285 80.4414 -355.079 80.4414C-448.873 80.4414 -486.976 200.996 -570.187 200.996C-653.398 200.996 -652.167 157.158 -718.28 157.158" stroke="#4674B9" stroke-width="2"/>
<path opacity="0.2" d="M-718.281 186.647C-718.281 186.647 -668.102 187.321 -637.071 175.148C-606.04 162.975 -489.21 91.0089 -404.311 91.0089C-319.412 91.0089 -282.616 148.97 -216.203 148.97C-149.79 148.97 -98.4435 138.593 0.522217 175.148C99.488 211.703 81.04 235.298 159.628 235.298C238.217 235.298 278.164 36.2176 367.276 36.9169C433.719 36.9169 494.882 153.793 517.035 175.148C539.188 196.503 612.603 246.272 709.148 246.272C805.692 246.272 891.376 98.2616 985.115 98.2616C1078.85 98.2616 1116.93 219.083 1200.1 219.083C1283.26 219.083 1282.03 175.148 1348.1 175.148C1348.64 222.705 1348.1 271.647 1348.1 271.647H-718.281V186.647Z" fill="url(#paint1_linear_697_19597)"/>
<path d="M-718.281 185.008C-718.281 185.008 -668.096 185.68 -637.06 173.548C-606.025 161.416 -489.181 89.6926 -404.27 89.6926C-319.36 89.6926 -282.559 147.458 -216.138 147.458C-149.716 147.458 -98.3629 137.117 0.615784 173.548C99.5945 209.979 81.1441 233.495 159.743 233.495C238.341 233.495 278.294 35.0862 367.417 35.7831C433.869 35.7831 495.04 152.265 517.196 173.548C539.352 194.831 612.777 244.432 709.334 244.432C805.891 244.432 891.585 96.9209 985.336 96.9209C1079.09 96.9209 1117.17 217.335 1200.34 217.335C1283.52 217.335 1282.29 173.548 1348.37 173.548" stroke="#73BEBF" stroke-width="2"/>
</g>
<defs>
<linearGradient id="paint0_linear_697_19597" x1="2327.18" y1="-150.257" x2="2327.18" y2="308.5" gradientUnits="userSpaceOnUse">
<stop stop-color="#4674B9"/>
<stop offset="1" stop-color="white"/>
</linearGradient>
<linearGradient id="paint1_linear_697_19597" x1="-1244.23" y1="-82.5609" x2="-1244.23" y2="271.647" gradientUnits="userSpaceOnUse">
<stop stop-color="#73BEBF"/>
<stop offset="1" stop-color="white"/>
</linearGradient>
</defs>
</svg>
