<svg width="548" height="252" viewBox="0 0 548 252" fill="none" xmlns="http://www.w3.org/2000/svg">
<path d="M84 224L84 1.72853e-06" stroke="#C9CDD4"/>
<path d="M137.5 224L137.5 3.09944e-06" stroke="#E5E6EB" stroke-dasharray="4 4"/>
<path d="M191 224L191 3.09944e-06" stroke="#E5E6EB" stroke-dasharray="4 4"/>
<path d="M244.5 224L244.5 3.09944e-06" stroke="#E5E6EB" stroke-dasharray="4 4"/>
<path d="M298 224L298 3.09944e-06" stroke="#E5E6EB" stroke-dasharray="4 4"/>
<path d="M351.5 224L351.5 3.09944e-06" stroke="#E5E6EB" stroke-dasharray="4 4"/>
<path d="M405 224L405 3.09944e-06" stroke="#E5E6EB" stroke-dasharray="4 4"/>
<path d="M458.5 224L458.5 3.09944e-06" stroke="#E5E6EB" stroke-dasharray="4 4"/>
<path d="M512 224L512 3.09944e-06" stroke="#E5E6EB" stroke-dasharray="4 4"/>
<path d="M42.223 31.112H45.151V32H41.131V23.636H42.223V31.112ZM45.9027 28.688C45.9027 28.016 46.0387 27.428 46.3107 26.924C46.5827 26.412 46.9547 26.016 47.4267 25.736C47.9067 25.456 48.4387 25.316 49.0227 25.316C49.5987 25.316 50.0987 25.44 50.5227 25.688C50.9467 25.936 51.2627 26.248 51.4707 26.624V25.424H52.5747V32H51.4707V30.776C51.2547 31.16 50.9307 31.48 50.4987 31.736C50.0747 31.984 49.5787 32.108 49.0107 32.108C48.4267 32.108 47.8987 31.964 47.4267 31.676C46.9547 31.388 46.5827 30.984 46.3107 30.464C46.0387 29.944 45.9027 29.352 45.9027 28.688ZM51.4707 28.7C51.4707 28.204 51.3707 27.772 51.1707 27.404C50.9707 27.036 50.6987 26.756 50.3547 26.564C50.0187 26.364 49.6467 26.264 49.2387 26.264C48.8307 26.264 48.4587 26.36 48.1227 26.552C47.7867 26.744 47.5187 27.024 47.3187 27.392C47.1187 27.76 47.0187 28.192 47.0187 28.688C47.0187 29.192 47.1187 29.632 47.3187 30.008C47.5187 30.376 47.7867 30.66 48.1227 30.86C48.4587 31.052 48.8307 31.148 49.2387 31.148C49.6467 31.148 50.0187 31.052 50.3547 30.86C50.6987 30.66 50.9707 30.376 51.1707 30.008C51.3707 29.632 51.4707 29.196 51.4707 28.7ZM55.5121 26.648C55.7361 26.256 56.0641 25.936 56.4961 25.688C56.9281 25.44 57.4201 25.316 57.9721 25.316C58.5641 25.316 59.0961 25.456 59.5681 25.736C60.0401 26.016 60.4121 26.412 60.6841 26.924C60.9561 27.428 61.0921 28.016 61.0921 28.688C61.0921 29.352 60.9561 29.944 60.6841 30.464C60.4121 30.984 60.0361 31.388 59.5561 31.676C59.0841 31.964 58.5561 32.108 57.9721 32.108C57.4041 32.108 56.9041 31.984 56.4721 31.736C56.0481 31.488 55.7281 31.172 55.5121 30.788V32H54.4201V23.12H55.5121V26.648ZM59.9761 28.688C59.9761 28.192 59.8761 27.76 59.6761 27.392C59.4761 27.024 59.2041 26.744 58.8601 26.552C58.5241 26.36 58.1521 26.264 57.7441 26.264C57.3441 26.264 56.9721 26.364 56.6281 26.564C56.2921 26.756 56.0201 27.04 55.8121 27.416C55.6121 27.784 55.5121 28.212 55.5121 28.7C55.5121 29.196 55.6121 29.632 55.8121 30.008C56.0201 30.376 56.2921 30.66 56.6281 30.86C56.9721 31.052 57.3441 31.148 57.7441 31.148C58.1521 31.148 58.5241 31.052 58.8601 30.86C59.2041 30.66 59.4761 30.376 59.6761 30.008C59.8761 29.632 59.9761 29.192 59.9761 28.688ZM68.5295 28.46C68.5295 28.668 68.5175 28.888 68.4935 29.12H63.2375C63.2775 29.768 63.4975 30.276 63.8975 30.644C64.3055 31.004 64.7975 31.184 65.3735 31.184C65.8455 31.184 66.2375 31.076 66.5495 30.86C66.8695 30.636 67.0935 30.34 67.2215 29.972H68.3975C68.2215 30.604 67.8695 31.12 67.3415 31.52C66.8135 31.912 66.1575 32.108 65.3735 32.108C64.7495 32.108 64.1895 31.968 63.6935 31.688C63.2055 31.408 62.8215 31.012 62.5415 30.5C62.2615 29.98 62.1215 29.38 62.1215 28.7C62.1215 28.02 62.2575 27.424 62.5295 26.912C62.8015 26.4 63.1815 26.008 63.6695 25.736C64.1655 25.456 64.7335 25.316 65.3735 25.316C65.9975 25.316 66.5495 25.452 67.0295 25.724C67.5095 25.996 67.8775 26.372 68.1335 26.852C68.3975 27.324 68.5295 27.86 68.5295 28.46ZM67.4015 28.232C67.4015 27.816 67.3095 27.46 67.1255 27.164C66.9415 26.86 66.6895 26.632 66.3695 26.48C66.0575 26.32 65.7095 26.24 65.3255 26.24C64.7735 26.24 64.3015 26.416 63.9095 26.768C63.5255 27.12 63.3055 27.608 63.2495 28.232H67.4015ZM71.0629 23.12V32H69.9709V23.12H71.0629Z" fill="#999999"/>
<path d="M42.223 73.112H45.151V74H41.131V65.636H42.223V73.112ZM45.9027 70.688C45.9027 70.016 46.0387 69.428 46.3107 68.924C46.5827 68.412 46.9547 68.016 47.4267 67.736C47.9067 67.456 48.4387 67.316 49.0227 67.316C49.5987 67.316 50.0987 67.44 50.5227 67.688C50.9467 67.936 51.2627 68.248 51.4707 68.624V67.424H52.5747V74H51.4707V72.776C51.2547 73.16 50.9307 73.48 50.4987 73.736C50.0747 73.984 49.5787 74.108 49.0107 74.108C48.4267 74.108 47.8987 73.964 47.4267 73.676C46.9547 73.388 46.5827 72.984 46.3107 72.464C46.0387 71.944 45.9027 71.352 45.9027 70.688ZM51.4707 70.7C51.4707 70.204 51.3707 69.772 51.1707 69.404C50.9707 69.036 50.6987 68.756 50.3547 68.564C50.0187 68.364 49.6467 68.264 49.2387 68.264C48.8307 68.264 48.4587 68.36 48.1227 68.552C47.7867 68.744 47.5187 69.024 47.3187 69.392C47.1187 69.76 47.0187 70.192 47.0187 70.688C47.0187 71.192 47.1187 71.632 47.3187 72.008C47.5187 72.376 47.7867 72.66 48.1227 72.86C48.4587 73.052 48.8307 73.148 49.2387 73.148C49.6467 73.148 50.0187 73.052 50.3547 72.86C50.6987 72.66 50.9707 72.376 51.1707 72.008C51.3707 71.632 51.4707 71.196 51.4707 70.7ZM55.5121 68.648C55.7361 68.256 56.0641 67.936 56.4961 67.688C56.9281 67.44 57.4201 67.316 57.9721 67.316C58.5641 67.316 59.0961 67.456 59.5681 67.736C60.0401 68.016 60.4121 68.412 60.6841 68.924C60.9561 69.428 61.0921 70.016 61.0921 70.688C61.0921 71.352 60.9561 71.944 60.6841 72.464C60.4121 72.984 60.0361 73.388 59.5561 73.676C59.0841 73.964 58.5561 74.108 57.9721 74.108C57.4041 74.108 56.9041 73.984 56.4721 73.736C56.0481 73.488 55.7281 73.172 55.5121 72.788V74H54.4201V65.12H55.5121V68.648ZM59.9761 70.688C59.9761 70.192 59.8761 69.76 59.6761 69.392C59.4761 69.024 59.2041 68.744 58.8601 68.552C58.5241 68.36 58.1521 68.264 57.7441 68.264C57.3441 68.264 56.9721 68.364 56.6281 68.564C56.2921 68.756 56.0201 69.04 55.8121 69.416C55.6121 69.784 55.5121 70.212 55.5121 70.7C55.5121 71.196 55.6121 71.632 55.8121 72.008C56.0201 72.376 56.2921 72.66 56.6281 72.86C56.9721 73.052 57.3441 73.148 57.7441 73.148C58.1521 73.148 58.5241 73.052 58.8601 72.86C59.2041 72.66 59.4761 72.376 59.6761 72.008C59.8761 71.632 59.9761 71.192 59.9761 70.688ZM68.5295 70.46C68.5295 70.668 68.5175 70.888 68.4935 71.12H63.2375C63.2775 71.768 63.4975 72.276 63.8975 72.644C64.3055 73.004 64.7975 73.184 65.3735 73.184C65.8455 73.184 66.2375 73.076 66.5495 72.86C66.8695 72.636 67.0935 72.34 67.2215 71.972H68.3975C68.2215 72.604 67.8695 73.12 67.3415 73.52C66.8135 73.912 66.1575 74.108 65.3735 74.108C64.7495 74.108 64.1895 73.968 63.6935 73.688C63.2055 73.408 62.8215 73.012 62.5415 72.5C62.2615 71.98 62.1215 71.38 62.1215 70.7C62.1215 70.02 62.2575 69.424 62.5295 68.912C62.8015 68.4 63.1815 68.008 63.6695 67.736C64.1655 67.456 64.7335 67.316 65.3735 67.316C65.9975 67.316 66.5495 67.452 67.0295 67.724C67.5095 67.996 67.8775 68.372 68.1335 68.852C68.3975 69.324 68.5295 69.86 68.5295 70.46ZM67.4015 70.232C67.4015 69.816 67.3095 69.46 67.1255 69.164C66.9415 68.86 66.6895 68.632 66.3695 68.48C66.0575 68.32 65.7095 68.24 65.3255 68.24C64.7735 68.24 64.3015 68.416 63.9095 68.768C63.5255 69.12 63.3055 69.608 63.2495 70.232H67.4015ZM71.0629 65.12V74H69.9709V65.12H71.0629Z" fill="#999999"/>
<path d="M42.223 115.112H45.151V116H41.131V107.636H42.223V115.112ZM45.9027 112.688C45.9027 112.016 46.0387 111.428 46.3107 110.924C46.5827 110.412 46.9547 110.016 47.4267 109.736C47.9067 109.456 48.4387 109.316 49.0227 109.316C49.5987 109.316 50.0987 109.44 50.5227 109.688C50.9467 109.936 51.2627 110.248 51.4707 110.624V109.424H52.5747V116H51.4707V114.776C51.2547 115.16 50.9307 115.48 50.4987 115.736C50.0747 115.984 49.5787 116.108 49.0107 116.108C48.4267 116.108 47.8987 115.964 47.4267 115.676C46.9547 115.388 46.5827 114.984 46.3107 114.464C46.0387 113.944 45.9027 113.352 45.9027 112.688ZM51.4707 112.7C51.4707 112.204 51.3707 111.772 51.1707 111.404C50.9707 111.036 50.6987 110.756 50.3547 110.564C50.0187 110.364 49.6467 110.264 49.2387 110.264C48.8307 110.264 48.4587 110.36 48.1227 110.552C47.7867 110.744 47.5187 111.024 47.3187 111.392C47.1187 111.76 47.0187 112.192 47.0187 112.688C47.0187 113.192 47.1187 113.632 47.3187 114.008C47.5187 114.376 47.7867 114.66 48.1227 114.86C48.4587 115.052 48.8307 115.148 49.2387 115.148C49.6467 115.148 50.0187 115.052 50.3547 114.86C50.6987 114.66 50.9707 114.376 51.1707 114.008C51.3707 113.632 51.4707 113.196 51.4707 112.7ZM55.5121 110.648C55.7361 110.256 56.0641 109.936 56.4961 109.688C56.9281 109.44 57.4201 109.316 57.9721 109.316C58.5641 109.316 59.0961 109.456 59.5681 109.736C60.0401 110.016 60.4121 110.412 60.6841 110.924C60.9561 111.428 61.0921 112.016 61.0921 112.688C61.0921 113.352 60.9561 113.944 60.6841 114.464C60.4121 114.984 60.0361 115.388 59.5561 115.676C59.0841 115.964 58.5561 116.108 57.9721 116.108C57.4041 116.108 56.9041 115.984 56.4721 115.736C56.0481 115.488 55.7281 115.172 55.5121 114.788V116H54.4201V107.12H55.5121V110.648ZM59.9761 112.688C59.9761 112.192 59.8761 111.76 59.6761 111.392C59.4761 111.024 59.2041 110.744 58.8601 110.552C58.5241 110.36 58.1521 110.264 57.7441 110.264C57.3441 110.264 56.9721 110.364 56.6281 110.564C56.2921 110.756 56.0201 111.04 55.8121 111.416C55.6121 111.784 55.5121 112.212 55.5121 112.7C55.5121 113.196 55.6121 113.632 55.8121 114.008C56.0201 114.376 56.2921 114.66 56.6281 114.86C56.9721 115.052 57.3441 115.148 57.7441 115.148C58.1521 115.148 58.5241 115.052 58.8601 114.86C59.2041 114.66 59.4761 114.376 59.6761 114.008C59.8761 113.632 59.9761 113.192 59.9761 112.688ZM68.5295 112.46C68.5295 112.668 68.5175 112.888 68.4935 113.12H63.2375C63.2775 113.768 63.4975 114.276 63.8975 114.644C64.3055 115.004 64.7975 115.184 65.3735 115.184C65.8455 115.184 66.2375 115.076 66.5495 114.86C66.8695 114.636 67.0935 114.34 67.2215 113.972H68.3975C68.2215 114.604 67.8695 115.12 67.3415 115.52C66.8135 115.912 66.1575 116.108 65.3735 116.108C64.7495 116.108 64.1895 115.968 63.6935 115.688C63.2055 115.408 62.8215 115.012 62.5415 114.5C62.2615 113.98 62.1215 113.38 62.1215 112.7C62.1215 112.02 62.2575 111.424 62.5295 110.912C62.8015 110.4 63.1815 110.008 63.6695 109.736C64.1655 109.456 64.7335 109.316 65.3735 109.316C65.9975 109.316 66.5495 109.452 67.0295 109.724C67.5095 109.996 67.8775 110.372 68.1335 110.852C68.3975 111.324 68.5295 111.86 68.5295 112.46ZM67.4015 112.232C67.4015 111.816 67.3095 111.46 67.1255 111.164C66.9415 110.86 66.6895 110.632 66.3695 110.48C66.0575 110.32 65.7095 110.24 65.3255 110.24C64.7735 110.24 64.3015 110.416 63.9095 110.768C63.5255 111.12 63.3055 111.608 63.2495 112.232H67.4015ZM71.0629 107.12V116H69.9709V107.12H71.0629Z" fill="#999999"/>
<path d="M42.223 157.112H45.151V158H41.131V149.636H42.223V157.112ZM45.9027 154.688C45.9027 154.016 46.0387 153.428 46.3107 152.924C46.5827 152.412 46.9547 152.016 47.4267 151.736C47.9067 151.456 48.4387 151.316 49.0227 151.316C49.5987 151.316 50.0987 151.44 50.5227 151.688C50.9467 151.936 51.2627 152.248 51.4707 152.624V151.424H52.5747V158H51.4707V156.776C51.2547 157.16 50.9307 157.48 50.4987 157.736C50.0747 157.984 49.5787 158.108 49.0107 158.108C48.4267 158.108 47.8987 157.964 47.4267 157.676C46.9547 157.388 46.5827 156.984 46.3107 156.464C46.0387 155.944 45.9027 155.352 45.9027 154.688ZM51.4707 154.7C51.4707 154.204 51.3707 153.772 51.1707 153.404C50.9707 153.036 50.6987 152.756 50.3547 152.564C50.0187 152.364 49.6467 152.264 49.2387 152.264C48.8307 152.264 48.4587 152.36 48.1227 152.552C47.7867 152.744 47.5187 153.024 47.3187 153.392C47.1187 153.76 47.0187 154.192 47.0187 154.688C47.0187 155.192 47.1187 155.632 47.3187 156.008C47.5187 156.376 47.7867 156.66 48.1227 156.86C48.4587 157.052 48.8307 157.148 49.2387 157.148C49.6467 157.148 50.0187 157.052 50.3547 156.86C50.6987 156.66 50.9707 156.376 51.1707 156.008C51.3707 155.632 51.4707 155.196 51.4707 154.7ZM55.5121 152.648C55.7361 152.256 56.0641 151.936 56.4961 151.688C56.9281 151.44 57.4201 151.316 57.9721 151.316C58.5641 151.316 59.0961 151.456 59.5681 151.736C60.0401 152.016 60.4121 152.412 60.6841 152.924C60.9561 153.428 61.0921 154.016 61.0921 154.688C61.0921 155.352 60.9561 155.944 60.6841 156.464C60.4121 156.984 60.0361 157.388 59.5561 157.676C59.0841 157.964 58.5561 158.108 57.9721 158.108C57.4041 158.108 56.9041 157.984 56.4721 157.736C56.0481 157.488 55.7281 157.172 55.5121 156.788V158H54.4201V149.12H55.5121V152.648ZM59.9761 154.688C59.9761 154.192 59.8761 153.76 59.6761 153.392C59.4761 153.024 59.2041 152.744 58.8601 152.552C58.5241 152.36 58.1521 152.264 57.7441 152.264C57.3441 152.264 56.9721 152.364 56.6281 152.564C56.2921 152.756 56.0201 153.04 55.8121 153.416C55.6121 153.784 55.5121 154.212 55.5121 154.7C55.5121 155.196 55.6121 155.632 55.8121 156.008C56.0201 156.376 56.2921 156.66 56.6281 156.86C56.9721 157.052 57.3441 157.148 57.7441 157.148C58.1521 157.148 58.5241 157.052 58.8601 156.86C59.2041 156.66 59.4761 156.376 59.6761 156.008C59.8761 155.632 59.9761 155.192 59.9761 154.688ZM68.5295 154.46C68.5295 154.668 68.5175 154.888 68.4935 155.12H63.2375C63.2775 155.768 63.4975 156.276 63.8975 156.644C64.3055 157.004 64.7975 157.184 65.3735 157.184C65.8455 157.184 66.2375 157.076 66.5495 156.86C66.8695 156.636 67.0935 156.34 67.2215 155.972H68.3975C68.2215 156.604 67.8695 157.12 67.3415 157.52C66.8135 157.912 66.1575 158.108 65.3735 158.108C64.7495 158.108 64.1895 157.968 63.6935 157.688C63.2055 157.408 62.8215 157.012 62.5415 156.5C62.2615 155.98 62.1215 155.38 62.1215 154.7C62.1215 154.02 62.2575 153.424 62.5295 152.912C62.8015 152.4 63.1815 152.008 63.6695 151.736C64.1655 151.456 64.7335 151.316 65.3735 151.316C65.9975 151.316 66.5495 151.452 67.0295 151.724C67.5095 151.996 67.8775 152.372 68.1335 152.852C68.3975 153.324 68.5295 153.86 68.5295 154.46ZM67.4015 154.232C67.4015 153.816 67.3095 153.46 67.1255 153.164C66.9415 152.86 66.6895 152.632 66.3695 152.48C66.0575 152.32 65.7095 152.24 65.3255 152.24C64.7735 152.24 64.3015 152.416 63.9095 152.768C63.5255 153.12 63.3055 153.608 63.2495 154.232H67.4015ZM71.0629 149.12V158H69.9709V149.12H71.0629Z" fill="#999999"/>
<path d="M42.223 199.112H45.151V200H41.131V191.636H42.223V199.112ZM45.9027 196.688C45.9027 196.016 46.0387 195.428 46.3107 194.924C46.5827 194.412 46.9547 194.016 47.4267 193.736C47.9067 193.456 48.4387 193.316 49.0227 193.316C49.5987 193.316 50.0987 193.44 50.5227 193.688C50.9467 193.936 51.2627 194.248 51.4707 194.624V193.424H52.5747V200H51.4707V198.776C51.2547 199.16 50.9307 199.48 50.4987 199.736C50.0747 199.984 49.5787 200.108 49.0107 200.108C48.4267 200.108 47.8987 199.964 47.4267 199.676C46.9547 199.388 46.5827 198.984 46.3107 198.464C46.0387 197.944 45.9027 197.352 45.9027 196.688ZM51.4707 196.7C51.4707 196.204 51.3707 195.772 51.1707 195.404C50.9707 195.036 50.6987 194.756 50.3547 194.564C50.0187 194.364 49.6467 194.264 49.2387 194.264C48.8307 194.264 48.4587 194.36 48.1227 194.552C47.7867 194.744 47.5187 195.024 47.3187 195.392C47.1187 195.76 47.0187 196.192 47.0187 196.688C47.0187 197.192 47.1187 197.632 47.3187 198.008C47.5187 198.376 47.7867 198.66 48.1227 198.86C48.4587 199.052 48.8307 199.148 49.2387 199.148C49.6467 199.148 50.0187 199.052 50.3547 198.86C50.6987 198.66 50.9707 198.376 51.1707 198.008C51.3707 197.632 51.4707 197.196 51.4707 196.7ZM55.5121 194.648C55.7361 194.256 56.0641 193.936 56.4961 193.688C56.9281 193.44 57.4201 193.316 57.9721 193.316C58.5641 193.316 59.0961 193.456 59.5681 193.736C60.0401 194.016 60.4121 194.412 60.6841 194.924C60.9561 195.428 61.0921 196.016 61.0921 196.688C61.0921 197.352 60.9561 197.944 60.6841 198.464C60.4121 198.984 60.0361 199.388 59.5561 199.676C59.0841 199.964 58.5561 200.108 57.9721 200.108C57.4041 200.108 56.9041 199.984 56.4721 199.736C56.0481 199.488 55.7281 199.172 55.5121 198.788V200H54.4201V191.12H55.5121V194.648ZM59.9761 196.688C59.9761 196.192 59.8761 195.76 59.6761 195.392C59.4761 195.024 59.2041 194.744 58.8601 194.552C58.5241 194.36 58.1521 194.264 57.7441 194.264C57.3441 194.264 56.9721 194.364 56.6281 194.564C56.2921 194.756 56.0201 195.04 55.8121 195.416C55.6121 195.784 55.5121 196.212 55.5121 196.7C55.5121 197.196 55.6121 197.632 55.8121 198.008C56.0201 198.376 56.2921 198.66 56.6281 198.86C56.9721 199.052 57.3441 199.148 57.7441 199.148C58.1521 199.148 58.5241 199.052 58.8601 198.86C59.2041 198.66 59.4761 198.376 59.6761 198.008C59.8761 197.632 59.9761 197.192 59.9761 196.688ZM68.5295 196.46C68.5295 196.668 68.5175 196.888 68.4935 197.12H63.2375C63.2775 197.768 63.4975 198.276 63.8975 198.644C64.3055 199.004 64.7975 199.184 65.3735 199.184C65.8455 199.184 66.2375 199.076 66.5495 198.86C66.8695 198.636 67.0935 198.34 67.2215 197.972H68.3975C68.2215 198.604 67.8695 199.12 67.3415 199.52C66.8135 199.912 66.1575 200.108 65.3735 200.108C64.7495 200.108 64.1895 199.968 63.6935 199.688C63.2055 199.408 62.8215 199.012 62.5415 198.5C62.2615 197.98 62.1215 197.38 62.1215 196.7C62.1215 196.02 62.2575 195.424 62.5295 194.912C62.8015 194.4 63.1815 194.008 63.6695 193.736C64.1655 193.456 64.7335 193.316 65.3735 193.316C65.9975 193.316 66.5495 193.452 67.0295 193.724C67.5095 193.996 67.8775 194.372 68.1335 194.852C68.3975 195.324 68.5295 195.86 68.5295 196.46ZM67.4015 196.232C67.4015 195.816 67.3095 195.46 67.1255 195.164C66.9415 194.86 66.6895 194.632 66.3695 194.48C66.0575 194.32 65.7095 194.24 65.3255 194.24C64.7735 194.24 64.3015 194.416 63.9095 194.768C63.5255 195.12 63.3055 195.608 63.2495 196.232H67.4015ZM71.0629 191.12V200H69.9709V191.12H71.0629Z" fill="#999999"/>
<rect x="84" y="17" width="405" height="11" fill="#165DFF"/>
<rect x="84" y="28" width="350" height="11" fill="#EEEEEE"/>
<rect x="84" y="59" width="374" height="11" fill="#165DFF"/>
<rect x="84" y="70" width="338" height="11" fill="#EEEEEE"/>
<rect x="84" y="101" width="321" height="11" fill="#165DFF"/>
<rect x="84" y="112" width="293" height="11" fill="#EEEEEE"/>
<rect x="84" y="143" width="366" height="11" fill="#165DFF"/>
<rect x="84" y="154" width="350" height="11" fill="#EEEEEE"/>
<rect x="84" y="185" width="328" height="11" fill="#165DFF"/>
<rect x="84" y="196" width="350" height="11" fill="#EEEEEE"/>
<path d="M84.744 241.572C84.744 240.196 84.968 239.124 85.416 238.356C85.864 237.58 86.648 237.192 87.768 237.192C88.88 237.192 89.66 237.58 90.108 238.356C90.556 239.124 90.78 240.196 90.78 241.572C90.78 242.972 90.556 244.06 90.108 244.836C89.66 245.612 88.88 246 87.768 246C86.648 246 85.864 245.612 85.416 244.836C84.968 244.06 84.744 242.972 84.744 241.572ZM89.7 241.572C89.7 240.876 89.652 240.288 89.556 239.808C89.468 239.32 89.28 238.928 88.992 238.632C88.712 238.336 88.304 238.188 87.768 238.188C87.224 238.188 86.808 238.336 86.52 238.632C86.24 238.928 86.052 239.32 85.956 239.808C85.868 240.288 85.824 240.876 85.824 241.572C85.824 242.292 85.868 242.896 85.956 243.384C86.052 243.872 86.24 244.264 86.52 244.56C86.808 244.856 87.224 245.004 87.768 245.004C88.304 245.004 88.712 244.856 88.992 244.56C89.28 244.264 89.468 243.872 89.556 243.384C89.652 242.896 89.7 242.292 89.7 241.572Z" fill="#999999"/>
<path d="M143.276 238.272H139.064V241.008C139.248 240.752 139.52 240.544 139.88 240.384C140.24 240.216 140.628 240.132 141.044 240.132C141.708 240.132 142.248 240.272 142.664 240.552C143.08 240.824 143.376 241.18 143.552 241.62C143.736 242.052 143.828 242.512 143.828 243C143.828 243.576 143.72 244.092 143.504 244.548C143.288 245.004 142.956 245.364 142.508 245.628C142.068 245.892 141.52 246.024 140.864 246.024C140.024 246.024 139.344 245.808 138.824 245.376C138.304 244.944 137.988 244.368 137.876 243.648H138.944C139.048 244.104 139.268 244.46 139.604 244.716C139.94 244.972 140.364 245.1 140.876 245.1C141.508 245.1 141.984 244.912 142.304 244.536C142.624 244.152 142.784 243.648 142.784 243.024C142.784 242.4 142.624 241.92 142.304 241.584C141.984 241.24 141.512 241.068 140.888 241.068C140.464 241.068 140.092 241.172 139.772 241.38C139.46 241.58 139.232 241.856 139.088 242.208H138.056V237.312H143.276V238.272ZM145.279 241.572C145.279 240.196 145.503 239.124 145.951 238.356C146.399 237.58 147.183 237.192 148.303 237.192C149.415 237.192 150.195 237.58 150.643 238.356C151.091 239.124 151.315 240.196 151.315 241.572C151.315 242.972 151.091 244.06 150.643 244.836C150.195 245.612 149.415 246 148.303 246C147.183 246 146.399 245.612 145.951 244.836C145.503 244.06 145.279 242.972 145.279 241.572ZM150.235 241.572C150.235 240.876 150.187 240.288 150.091 239.808C150.003 239.32 149.815 238.928 149.527 238.632C149.247 238.336 148.839 238.188 148.303 238.188C147.759 238.188 147.343 238.336 147.055 238.632C146.775 238.928 146.587 239.32 146.491 239.808C146.403 240.288 146.359 240.876 146.359 241.572C146.359 242.292 146.403 242.896 146.491 243.384C146.587 243.872 146.775 244.264 147.055 244.56C147.343 244.856 147.759 245.004 148.303 245.004C148.839 245.004 149.247 244.856 149.527 244.56C149.815 244.264 150.003 243.872 150.091 243.384C150.187 242.896 150.235 242.292 150.235 241.572Z" fill="#999999"/>
<path d="M190.456 238.32V237.324H192.712V246H191.608V238.32H190.456ZM194.588 241.572C194.588 240.196 194.812 239.124 195.26 238.356C195.708 237.58 196.492 237.192 197.612 237.192C198.724 237.192 199.504 237.58 199.952 238.356C200.4 239.124 200.624 240.196 200.624 241.572C200.624 242.972 200.4 244.06 199.952 244.836C199.504 245.612 198.724 246 197.612 246C196.492 246 195.708 245.612 195.26 244.836C194.812 244.06 194.588 242.972 194.588 241.572ZM199.544 241.572C199.544 240.876 199.496 240.288 199.4 239.808C199.312 239.32 199.124 238.928 198.836 238.632C198.556 238.336 198.148 238.188 197.612 238.188C197.068 238.188 196.652 238.336 196.364 238.632C196.084 238.928 195.896 239.32 195.8 239.808C195.712 240.288 195.668 240.876 195.668 241.572C195.668 242.292 195.712 242.896 195.8 243.384C195.896 243.872 196.084 244.264 196.364 244.56C196.652 244.856 197.068 245.004 197.612 245.004C198.148 245.004 198.556 244.856 198.836 244.56C199.124 244.264 199.312 243.872 199.4 243.384C199.496 242.896 199.544 242.292 199.544 241.572ZM202.123 241.572C202.123 240.196 202.347 239.124 202.795 238.356C203.243 237.58 204.027 237.192 205.147 237.192C206.259 237.192 207.039 237.58 207.487 238.356C207.935 239.124 208.159 240.196 208.159 241.572C208.159 242.972 207.935 244.06 207.487 244.836C207.039 245.612 206.259 246 205.147 246C204.027 246 203.243 245.612 202.795 244.836C202.347 244.06 202.123 242.972 202.123 241.572ZM207.079 241.572C207.079 240.876 207.031 240.288 206.935 239.808C206.847 239.32 206.659 238.928 206.371 238.632C206.091 238.336 205.683 238.188 205.147 238.188C204.603 238.188 204.187 238.336 203.899 238.632C203.619 238.928 203.431 239.32 203.335 239.808C203.247 240.288 203.203 240.876 203.203 241.572C203.203 242.292 203.247 242.896 203.335 243.384C203.431 243.872 203.619 244.264 203.899 244.56C204.187 244.856 204.603 245.004 205.147 245.004C205.683 245.004 206.091 244.856 206.371 244.56C206.659 244.264 206.847 243.872 206.935 243.384C207.031 242.896 207.079 242.292 207.079 241.572Z" fill="#999999"/>
<path d="M243.456 238.32V237.324H245.712V246H244.608V238.32H243.456ZM253.12 238.272H248.908V241.008C249.092 240.752 249.364 240.544 249.724 240.384C250.084 240.216 250.472 240.132 250.888 240.132C251.552 240.132 252.092 240.272 252.508 240.552C252.924 240.824 253.22 241.18 253.396 241.62C253.58 242.052 253.672 242.512 253.672 243C253.672 243.576 253.564 244.092 253.348 244.548C253.132 245.004 252.8 245.364 252.352 245.628C251.912 245.892 251.364 246.024 250.708 246.024C249.868 246.024 249.188 245.808 248.668 245.376C248.148 244.944 247.832 244.368 247.72 243.648H248.788C248.892 244.104 249.112 244.46 249.448 244.716C249.784 244.972 250.208 245.1 250.72 245.1C251.352 245.1 251.828 244.912 252.148 244.536C252.468 244.152 252.628 243.648 252.628 243.024C252.628 242.4 252.468 241.92 252.148 241.584C251.828 241.24 251.356 241.068 250.732 241.068C250.308 241.068 249.936 241.172 249.616 241.38C249.304 241.58 249.076 241.856 248.932 242.208H247.9V237.312H253.12V238.272ZM255.123 241.572C255.123 240.196 255.347 239.124 255.795 238.356C256.243 237.58 257.027 237.192 258.147 237.192C259.259 237.192 260.039 237.58 260.487 238.356C260.935 239.124 261.159 240.196 261.159 241.572C261.159 242.972 260.935 244.06 260.487 244.836C260.039 245.612 259.259 246 258.147 246C257.027 246 256.243 245.612 255.795 244.836C255.347 244.06 255.123 242.972 255.123 241.572ZM260.079 241.572C260.079 240.876 260.031 240.288 259.935 239.808C259.847 239.32 259.659 238.928 259.371 238.632C259.091 238.336 258.683 238.188 258.147 238.188C257.603 238.188 257.187 238.336 256.899 238.632C256.619 238.928 256.431 239.32 256.335 239.808C256.247 240.288 256.203 240.876 256.203 241.572C256.203 242.292 256.247 242.896 256.335 243.384C256.431 243.872 256.619 244.264 256.899 244.56C257.187 244.856 257.603 245.004 258.147 245.004C258.683 245.004 259.091 244.856 259.371 244.56C259.659 244.264 259.847 243.872 259.935 243.384C260.031 242.896 260.079 242.292 260.079 241.572Z" fill="#999999"/>
<path d="M296.612 245.124C297.628 244.308 298.424 243.64 299 243.12C299.576 242.592 300.06 242.044 300.452 241.476C300.852 240.9 301.052 240.336 301.052 239.784C301.052 239.264 300.924 238.856 300.668 238.56C300.42 238.256 300.016 238.104 299.456 238.104C298.912 238.104 298.488 238.276 298.184 238.62C297.888 238.956 297.728 239.408 297.704 239.976H296.648C296.68 239.08 296.952 238.388 297.464 237.9C297.976 237.412 298.636 237.168 299.444 237.168C300.268 237.168 300.92 237.396 301.4 237.852C301.888 238.308 302.132 238.936 302.132 239.736C302.132 240.4 301.932 241.048 301.532 241.68C301.14 242.304 300.692 242.856 300.188 243.336C299.684 243.808 299.04 244.36 298.256 244.992H302.384V245.904H296.612V245.124ZM303.646 241.572C303.646 240.196 303.87 239.124 304.318 238.356C304.766 237.58 305.55 237.192 306.67 237.192C307.782 237.192 308.562 237.58 309.01 238.356C309.458 239.124 309.682 240.196 309.682 241.572C309.682 242.972 309.458 244.06 309.01 244.836C308.562 245.612 307.782 246 306.67 246C305.55 246 304.766 245.612 304.318 244.836C303.87 244.06 303.646 242.972 303.646 241.572ZM308.602 241.572C308.602 240.876 308.554 240.288 308.458 239.808C308.37 239.32 308.182 238.928 307.894 238.632C307.614 238.336 307.206 238.188 306.67 238.188C306.126 238.188 305.71 238.336 305.422 238.632C305.142 238.928 304.954 239.32 304.858 239.808C304.77 240.288 304.726 240.876 304.726 241.572C304.726 242.292 304.77 242.896 304.858 243.384C304.954 243.872 305.142 244.264 305.422 244.56C305.71 244.856 306.126 245.004 306.67 245.004C307.206 245.004 307.614 244.856 307.894 244.56C308.182 244.264 308.37 243.872 308.458 243.384C308.554 242.896 308.602 242.292 308.602 241.572ZM311.182 241.572C311.182 240.196 311.406 239.124 311.854 238.356C312.302 237.58 313.086 237.192 314.206 237.192C315.318 237.192 316.098 237.58 316.546 238.356C316.993 239.124 317.217 240.196 317.217 241.572C317.217 242.972 316.993 244.06 316.546 244.836C316.098 245.612 315.318 246 314.206 246C313.086 246 312.302 245.612 311.854 244.836C311.406 244.06 311.182 242.972 311.182 241.572ZM316.138 241.572C316.138 240.876 316.09 240.288 315.994 239.808C315.906 239.32 315.718 238.928 315.43 238.632C315.15 238.336 314.742 238.188 314.206 238.188C313.662 238.188 313.246 238.336 312.958 238.632C312.678 238.928 312.49 239.32 312.394 239.808C312.306 240.288 312.262 240.876 312.262 241.572C312.262 242.292 312.306 242.896 312.394 243.384C312.49 243.872 312.678 244.264 312.958 244.56C313.246 244.856 313.662 245.004 314.206 245.004C314.742 245.004 315.15 244.856 315.43 244.56C315.718 244.264 315.906 243.872 315.994 243.384C316.09 242.896 316.138 242.292 316.138 241.572Z" fill="#999999"/>
<path d="M349.612 245.124C350.628 244.308 351.424 243.64 352 243.12C352.576 242.592 353.06 242.044 353.452 241.476C353.852 240.9 354.052 240.336 354.052 239.784C354.052 239.264 353.924 238.856 353.668 238.56C353.42 238.256 353.016 238.104 352.456 238.104C351.912 238.104 351.488 238.276 351.184 238.62C350.888 238.956 350.728 239.408 350.704 239.976H349.648C349.68 239.08 349.952 238.388 350.464 237.9C350.976 237.412 351.636 237.168 352.444 237.168C353.268 237.168 353.92 237.396 354.4 237.852C354.888 238.308 355.132 238.936 355.132 239.736C355.132 240.4 354.932 241.048 354.532 241.68C354.14 242.304 353.692 242.856 353.188 243.336C352.684 243.808 352.04 244.36 351.256 244.992H355.384V245.904H349.612V245.124ZM362.178 238.272H357.966V241.008C358.15 240.752 358.422 240.544 358.782 240.384C359.142 240.216 359.53 240.132 359.946 240.132C360.61 240.132 361.15 240.272 361.566 240.552C361.982 240.824 362.278 241.18 362.454 241.62C362.638 242.052 362.73 242.512 362.73 243C362.73 243.576 362.622 244.092 362.406 244.548C362.19 245.004 361.858 245.364 361.41 245.628C360.97 245.892 360.422 246.024 359.766 246.024C358.926 246.024 358.246 245.808 357.726 245.376C357.206 244.944 356.89 244.368 356.778 243.648H357.846C357.95 244.104 358.17 244.46 358.506 244.716C358.842 244.972 359.266 245.1 359.778 245.1C360.41 245.1 360.886 244.912 361.206 244.536C361.526 244.152 361.686 243.648 361.686 243.024C361.686 242.4 361.526 241.92 361.206 241.584C360.886 241.24 360.414 241.068 359.79 241.068C359.366 241.068 358.994 241.172 358.674 241.38C358.362 241.58 358.134 241.856 357.99 242.208H356.958V237.312H362.178V238.272ZM364.182 241.572C364.182 240.196 364.406 239.124 364.854 238.356C365.302 237.58 366.086 237.192 367.206 237.192C368.318 237.192 369.098 237.58 369.546 238.356C369.993 239.124 370.217 240.196 370.217 241.572C370.217 242.972 369.993 244.06 369.546 244.836C369.098 245.612 368.318 246 367.206 246C366.086 246 365.302 245.612 364.854 244.836C364.406 244.06 364.182 242.972 364.182 241.572ZM369.138 241.572C369.138 240.876 369.09 240.288 368.994 239.808C368.906 239.32 368.718 238.928 368.43 238.632C368.15 238.336 367.742 238.188 367.206 238.188C366.662 238.188 366.246 238.336 365.958 238.632C365.678 238.928 365.49 239.32 365.394 239.808C365.306 240.288 365.262 240.876 365.262 241.572C365.262 242.292 365.306 242.896 365.394 243.384C365.49 243.872 365.678 244.264 365.958 244.56C366.246 244.856 366.662 245.004 367.206 245.004C367.742 245.004 368.15 244.856 368.43 244.56C368.718 244.264 368.906 243.872 368.994 243.384C369.09 242.896 369.138 242.292 369.138 241.572Z" fill="#999999"/>
<path d="M402.72 239.508C402.776 238.772 403.06 238.196 403.572 237.78C404.084 237.364 404.748 237.156 405.564 237.156C406.108 237.156 406.576 237.256 406.968 237.456C407.368 237.648 407.668 237.912 407.868 238.248C408.076 238.584 408.18 238.964 408.18 239.388C408.18 239.884 408.036 240.312 407.748 240.672C407.468 241.032 407.1 241.264 406.644 241.368V241.428C407.164 241.556 407.576 241.808 407.88 242.184C408.184 242.56 408.336 243.052 408.336 243.66C408.336 244.116 408.232 244.528 408.024 244.896C407.816 245.256 407.504 245.54 407.088 245.748C406.672 245.956 406.172 246.06 405.588 246.06C404.74 246.06 404.044 245.84 403.5 245.4C402.956 244.952 402.652 244.32 402.588 243.504H403.644C403.7 243.984 403.896 244.376 404.232 244.68C404.568 244.984 405.016 245.136 405.576 245.136C406.136 245.136 406.56 244.992 406.848 244.704C407.144 244.408 407.292 244.028 407.292 243.564C407.292 242.964 407.092 242.532 406.692 242.268C406.292 242.004 405.688 241.872 404.88 241.872H404.604V240.96H404.892C405.628 240.952 406.184 240.832 406.56 240.6C406.936 240.36 407.124 239.992 407.124 239.496C407.124 239.072 406.984 238.732 406.704 238.476C406.432 238.22 406.04 238.092 405.528 238.092C405.032 238.092 404.632 238.22 404.328 238.476C404.024 238.732 403.844 239.076 403.788 239.508H402.72ZM409.81 241.572C409.81 240.196 410.034 239.124 410.482 238.356C410.93 237.58 411.714 237.192 412.834 237.192C413.946 237.192 414.726 237.58 415.174 238.356C415.622 239.124 415.846 240.196 415.846 241.572C415.846 242.972 415.622 244.06 415.174 244.836C414.726 245.612 413.946 246 412.834 246C411.714 246 410.93 245.612 410.482 244.836C410.034 244.06 409.81 242.972 409.81 241.572ZM414.766 241.572C414.766 240.876 414.718 240.288 414.622 239.808C414.534 239.32 414.346 238.928 414.058 238.632C413.778 238.336 413.37 238.188 412.834 238.188C412.29 238.188 411.874 238.336 411.586 238.632C411.306 238.928 411.118 239.32 411.022 239.808C410.934 240.288 410.89 240.876 410.89 241.572C410.89 242.292 410.934 242.896 411.022 243.384C411.118 243.872 411.306 244.264 411.586 244.56C411.874 244.856 412.29 245.004 412.834 245.004C413.37 245.004 413.778 244.856 414.058 244.56C414.346 244.264 414.534 243.872 414.622 243.384C414.718 242.896 414.766 242.292 414.766 241.572ZM417.346 241.572C417.346 240.196 417.57 239.124 418.018 238.356C418.466 237.58 419.25 237.192 420.37 237.192C421.482 237.192 422.262 237.58 422.71 238.356C423.158 239.124 423.382 240.196 423.382 241.572C423.382 242.972 423.158 244.06 422.71 244.836C422.262 245.612 421.482 246 420.37 246C419.25 246 418.466 245.612 418.018 244.836C417.57 244.06 417.346 242.972 417.346 241.572ZM422.302 241.572C422.302 240.876 422.254 240.288 422.158 239.808C422.07 239.32 421.882 238.928 421.594 238.632C421.314 238.336 420.906 238.188 420.37 238.188C419.826 238.188 419.41 238.336 419.122 238.632C418.842 238.928 418.654 239.32 418.558 239.808C418.47 240.288 418.426 240.876 418.426 241.572C418.426 242.292 418.47 242.896 418.558 243.384C418.654 243.872 418.842 244.264 419.122 244.56C419.41 244.856 419.826 245.004 420.37 245.004C420.906 245.004 421.314 244.856 421.594 244.56C421.882 244.264 422.07 243.872 422.158 243.384C422.254 242.896 422.302 242.292 422.302 241.572Z" fill="#999999"/>
<path d="M455.72 239.508C455.776 238.772 456.06 238.196 456.572 237.78C457.084 237.364 457.748 237.156 458.564 237.156C459.108 237.156 459.576 237.256 459.968 237.456C460.368 237.648 460.668 237.912 460.868 238.248C461.076 238.584 461.18 238.964 461.18 239.388C461.18 239.884 461.036 240.312 460.748 240.672C460.468 241.032 460.1 241.264 459.644 241.368V241.428C460.164 241.556 460.576 241.808 460.88 242.184C461.184 242.56 461.336 243.052 461.336 243.66C461.336 244.116 461.232 244.528 461.024 244.896C460.816 245.256 460.504 245.54 460.088 245.748C459.672 245.956 459.172 246.06 458.588 246.06C457.74 246.06 457.044 245.84 456.5 245.4C455.956 244.952 455.652 244.32 455.588 243.504H456.644C456.7 243.984 456.896 244.376 457.232 244.68C457.568 244.984 458.016 245.136 458.576 245.136C459.136 245.136 459.56 244.992 459.848 244.704C460.144 244.408 460.292 244.028 460.292 243.564C460.292 242.964 460.092 242.532 459.692 242.268C459.292 242.004 458.688 241.872 457.88 241.872H457.604V240.96H457.892C458.628 240.952 459.184 240.832 459.56 240.6C459.936 240.36 460.124 239.992 460.124 239.496C460.124 239.072 459.984 238.732 459.704 238.476C459.432 238.22 459.04 238.092 458.528 238.092C458.032 238.092 457.632 238.22 457.328 238.476C457.024 238.732 456.844 239.076 456.788 239.508H455.72ZM468.342 238.272H464.13V241.008C464.314 240.752 464.586 240.544 464.946 240.384C465.306 240.216 465.694 240.132 466.11 240.132C466.774 240.132 467.314 240.272 467.73 240.552C468.146 240.824 468.442 241.18 468.618 241.62C468.802 242.052 468.894 242.512 468.894 243C468.894 243.576 468.786 244.092 468.57 244.548C468.354 245.004 468.022 245.364 467.574 245.628C467.134 245.892 466.586 246.024 465.93 246.024C465.09 246.024 464.41 245.808 463.89 245.376C463.37 244.944 463.054 244.368 462.942 243.648H464.01C464.114 244.104 464.334 244.46 464.67 244.716C465.006 244.972 465.43 245.1 465.942 245.1C466.574 245.1 467.05 244.912 467.37 244.536C467.69 244.152 467.85 243.648 467.85 243.024C467.85 242.4 467.69 241.92 467.37 241.584C467.05 241.24 466.578 241.068 465.954 241.068C465.53 241.068 465.158 241.172 464.838 241.38C464.526 241.58 464.298 241.856 464.154 242.208H463.122V237.312H468.342V238.272ZM470.346 241.572C470.346 240.196 470.57 239.124 471.018 238.356C471.466 237.58 472.25 237.192 473.37 237.192C474.482 237.192 475.262 237.58 475.71 238.356C476.158 239.124 476.382 240.196 476.382 241.572C476.382 242.972 476.158 244.06 475.71 244.836C475.262 245.612 474.482 246 473.37 246C472.25 246 471.466 245.612 471.018 244.836C470.57 244.06 470.346 242.972 470.346 241.572ZM475.302 241.572C475.302 240.876 475.254 240.288 475.158 239.808C475.07 239.32 474.882 238.928 474.594 238.632C474.314 238.336 473.906 238.188 473.37 238.188C472.826 238.188 472.41 238.336 472.122 238.632C471.842 238.928 471.654 239.32 471.558 239.808C471.47 240.288 471.426 240.876 471.426 241.572C471.426 242.292 471.47 242.896 471.558 243.384C471.654 243.872 471.842 244.264 472.122 244.56C472.41 244.856 472.826 245.004 473.37 245.004C473.906 245.004 474.314 244.856 474.594 244.56C474.882 244.264 475.07 243.872 475.158 243.384C475.254 242.896 475.302 242.292 475.302 241.572Z" fill="#999999"/>
<path d="M508.48 244.068V243.24L512.692 237.408H514V243.12H515.2V244.068H514V246H512.92V244.068H508.48ZM512.968 238.548L509.74 243.12H512.968V238.548ZM516.291 241.572C516.291 240.196 516.515 239.124 516.963 238.356C517.411 237.58 518.195 237.192 519.315 237.192C520.427 237.192 521.207 237.58 521.655 238.356C522.103 239.124 522.327 240.196 522.327 241.572C522.327 242.972 522.103 244.06 521.655 244.836C521.207 245.612 520.427 246 519.315 246C518.195 246 517.411 245.612 516.963 244.836C516.515 244.06 516.291 242.972 516.291 241.572ZM521.247 241.572C521.247 240.876 521.199 240.288 521.103 239.808C521.015 239.32 520.827 238.928 520.539 238.632C520.259 238.336 519.851 238.188 519.315 238.188C518.771 238.188 518.355 238.336 518.067 238.632C517.787 238.928 517.599 239.32 517.503 239.808C517.415 240.288 517.371 240.876 517.371 241.572C517.371 242.292 517.415 242.896 517.503 243.384C517.599 243.872 517.787 244.264 518.067 244.56C518.355 244.856 518.771 245.004 519.315 245.004C519.851 245.004 520.259 244.856 520.539 244.56C520.827 244.264 521.015 243.872 521.103 243.384C521.199 242.896 521.247 242.292 521.247 241.572ZM523.826 241.572C523.826 240.196 524.05 239.124 524.498 238.356C524.946 237.58 525.73 237.192 526.85 237.192C527.962 237.192 528.742 237.58 529.19 238.356C529.638 239.124 529.862 240.196 529.862 241.572C529.862 242.972 529.638 244.06 529.19 244.836C528.742 245.612 527.962 246 526.85 246C525.73 246 524.946 245.612 524.498 244.836C524.05 244.06 523.826 242.972 523.826 241.572ZM528.782 241.572C528.782 240.876 528.734 240.288 528.638 239.808C528.55 239.32 528.362 238.928 528.074 238.632C527.794 238.336 527.386 238.188 526.85 238.188C526.306 238.188 525.89 238.336 525.602 238.632C525.322 238.928 525.134 239.32 525.038 239.808C524.95 240.288 524.906 240.876 524.906 241.572C524.906 242.292 524.95 242.896 525.038 243.384C525.134 243.872 525.322 244.264 525.602 244.56C525.89 244.856 526.306 245.004 526.85 245.004C527.386 245.004 527.794 244.856 528.074 244.56C528.362 244.264 528.55 243.872 528.638 243.384C528.734 242.896 528.782 242.292 528.782 241.572Z" fill="#999999"/>
</svg>
