<svg width="269" height="198" viewBox="0 0 269 198" fill="none" xmlns="http://www.w3.org/2000/svg">
<path fill-rule="evenodd" clip-rule="evenodd" d="M44.3949 133.868L99.6183 122.21C102.94 121.505 105.064 118.241 104.368 114.913L94.8915 69.8889C94.1876 66.5627 90.928 64.4349 87.6051 65.1324L32.3817 76.7898C29.0604 77.4948 26.9357 80.7592 27.6322 84.087L37.1085 129.111C37.8124 132.437 41.072 134.565 44.3949 133.868ZM28.3402 83.9375C27.7257 81.0012 29.6004 78.1209 32.5309 77.4988L87.7544 65.8414C90.6863 65.226 93.5624 67.1035 94.1835 70.0383L103.66 115.062C104.274 117.999 102.4 120.879 99.4691 121.501L44.2456 133.159C41.3137 133.774 38.4376 131.897 37.8165 128.962L28.3402 83.9375Z" fill="#3F3D56"/>
<path d="M84.7404 79.9922L56.7076 85.9738C56.1986 86.0934 55.6851 85.7934 55.5325 85.2875C55.4646 85.0305 55.504 84.7566 55.6416 84.5299C55.7791 84.3032 56.0026 84.1437 56.2598 84.0888L84.7954 78C85.9096 78.6356 85.5575 79.8179 84.74 79.9923L84.7404 79.9922Z" fill="#CCCCCC"/>
<path d="M85.7404 83.9923L57.7076 89.9738C57.1986 90.0934 56.6851 89.7934 56.5325 89.2875C56.4646 89.0305 56.504 88.7566 56.6416 88.5299C56.7791 88.3032 57.0026 88.1437 57.2598 88.0888L85.7954 82C86.9096 82.6356 86.5575 83.8179 85.74 83.9923L85.7404 83.9923Z" fill="#CCCCCC"/>
<path d="M51.6345 94.1804L42.9704 95.9769C42.3813 96.0985 41.8033 95.7279 41.6786 95.1485L39.5235 85.0904C39.3999 84.5109 39.7766 83.9423 40.3655 83.8196L49.0296 82.023C49.6187 81.9017 50.1965 82.2722 50.3214 82.8514L52.4765 92.9095C52.6001 93.4891 52.2234 94.0577 51.6345 94.1804L51.6345 94.1804Z" fill="#CCCCCC"/>
<path d="M87.7358 94.966L44.7143 103.974C44.2025 104.092 43.6861 103.796 43.5327 103.297C43.4644 103.043 43.504 102.773 43.6423 102.549C43.7806 102.326 44.0054 102.168 44.264 102.114L87.7915 93C88.9119 93.6272 88.5578 94.7939 87.7358 94.966Z" fill="#CCCCCC"/>
<path d="M88.7358 99.966L45.7143 108.974C45.2025 109.092 44.6861 108.796 44.5327 108.297C44.4644 108.043 44.504 107.773 44.6423 107.549C44.7806 107.326 45.0054 107.168 45.264 107.114L88.7915 98C89.9119 98.6272 89.5578 99.7939 88.7358 99.966H88.7358Z" fill="#CCCCCC"/>
<path d="M89.7358 103.966L46.7143 112.974C46.2025 113.092 45.6861 112.796 45.5327 112.297C45.4644 112.043 45.504 111.773 45.6423 111.549C45.7806 111.326 46.0054 111.168 46.264 111.114L89.7915 102C90.9119 102.627 90.5578 103.794 89.7358 103.966H89.7358Z" fill="#CCCCCC"/>
<path d="M90.7358 108.966L47.7143 117.974C47.2025 118.092 46.6861 117.796 46.5327 117.297C46.4644 117.043 46.504 116.773 46.6423 116.549C46.7806 116.326 47.0054 116.168 47.264 116.114L90.7915 107C91.9119 107.627 91.5578 108.794 90.7358 108.966Z" fill="#CCCCCC"/>
<path d="M91.7358 113.966L48.7143 122.974C48.2025 123.092 47.6861 122.796 47.5327 122.297C47.4644 122.043 47.504 121.773 47.6423 121.549C47.7806 121.326 48.0054 121.168 48.264 121.114L91.7915 112C92.9119 112.627 92.5578 113.794 91.7358 113.966Z" fill="#CCCCCC"/>
<path d="M98.4162 91.9697C98.32 92.1475 98.2376 92.3328 98.17 92.5237L80.824 96.9055L77.8065 93.7277L72.5 97.7367L77.3049 103.891C78.1023 104.912 79.4661 105.275 80.6524 104.782L99.4744 96.9523C100.741 97.9015 102.453 97.9537 103.773 97.0835C105.093 96.2133 105.747 94.6023 105.414 93.0373C105.082 91.4723 103.833 90.28 102.278 90.0427C100.722 89.8054 99.1846 90.5727 98.4162 91.9698L98.4162 91.9697Z" fill="#FFB8B8"/>
<path d="M38.4865 130.815C39.5641 130.471 40.4389 129.652 40.8756 128.577C41.3123 127.503 41.266 126.283 40.7491 125.247L52.5 91.4946L44.3394 90L35.3548 123.648C33.6918 124.683 33.0411 126.841 33.84 128.669C34.639 130.498 36.6352 131.42 38.4865 130.815V130.815Z" fill="#FFB8B8"/>
<path d="M51.9131 97.8806L43.6276 94.6265C43.1505 94.4391 42.7768 94.0485 42.6038 93.5565C42.4308 93.0645 42.4756 92.5198 42.7266 92.0644L47.0732 84.1778C48.0519 81.6145 50.8726 80.3446 53.3805 81.3382C55.8884 82.3318 57.1381 85.2144 56.175 87.7839L54.2578 96.5932C54.1465 97.1036 53.8237 97.5391 53.3735 97.7863C52.9232 98.0335 52.3901 98.068 51.9131 97.8806V97.8806Z" fill="#3E7EFF"/>
<path d="M69.5008 193H74.2434L76.5 176L69.5 176L69.5008 193Z" fill="#FFB8B8"/>
<path d="M69.5 192L78.0505 192H78.0509C79.4961 192 80.8821 192.612 81.904 193.702C82.9259 194.792 83.5 196.27 83.5 197.811V197.999L69.5003 198L69.5 192Z" fill="#2F2E41"/>
<path d="M44.5008 193H49.2434L51.5 176L44.5 176L44.5008 193Z" fill="#FFB8B8"/>
<path d="M44.5 192L53.0505 192H53.0509C54.4961 192 55.8821 192.612 56.904 193.702C57.9259 194.792 58.5 196.27 58.5 197.811V197.999L44.5003 198L44.5 192Z" fill="#2F2E41"/>
<path d="M49.6893 186H44.1164C43.6744 186 43.2517 185.817 42.9466 185.493C42.6416 185.169 42.4809 184.733 42.5018 184.286L45.1489 126.715L45.3157 126.71L72.2267 126L77.4928 183.604C77.5337 184.04 77.4 184.475 77.1218 184.811C76.8436 185.146 76.444 185.355 76.0126 185.39L69.753 185.897C68.9393 185.962 68.205 185.404 68.0407 184.594L60.034 143.588C59.9889 143.33 59.7645 143.145 59.5063 143.151H59.5041C59.245 143.146 59.0208 143.333 58.9774 143.592L51.2752 184.68C51.1248 185.446 50.4611 185.999 49.6893 186Z" fill="#2F2E41"/>
<circle cx="60.5" cy="67" r="9" fill="#FFB8B8"/>
<path d="M57.2068 134C52.9801 134 48.6387 132.886 45.0397 129.593C44.6512 129.24 44.4541 128.723 44.5091 128.2C44.8943 124.73 46.7629 106.815 45.7106 94.8483C45.2942 90.3165 47.0266 85.8521 50.3884 82.7936C53.6912 79.7421 58.2326 78.4238 62.6509 79.2342H62.651C62.7615 79.2539 62.8718 79.2748 62.9824 79.296C70.0822 80.6735 75.0152 87.2604 74.457 94.6178C73.6425 105.353 72.9123 119.875 74.0588 128.087C74.1562 128.776 73.8058 129.45 73.1869 129.765C70.5783 131.086 64.0425 134 57.2068 134Z" fill="#3E7EFF"/>
<path d="M68.4918 97.7137C68.0767 97.4389 67.8025 96.9978 67.7409 96.5056L66.6757 88.0096C65.9717 85.4939 67.4465 82.8858 69.9731 82.1784C72.4998 81.4709 75.1254 82.9309 75.8435 85.4426L79.3521 93.291C79.5547 93.7443 79.5489 94.2628 79.3363 94.7115C79.1237 95.1602 78.7254 95.4946 78.245 95.6276L69.902 97.9374C69.4216 98.0706 68.9067 97.989 68.4918 97.7137Z" fill="#3E7EFF"/>
<path d="M57.049 75.9989C56.214 76.0149 55.3841 75.8593 54.6075 75.541C54.2658 75.4044 53.911 75.2922 53.57 75.1556C50.5576 73.9491 48.5732 70.6234 48.5022 67.2765C48.4311 63.9296 50.1031 60.6811 52.5858 58.5402C55.0685 56.3994 58.2843 55.3003 61.5043 55.0461C64.9728 54.7723 68.8785 55.6842 70.8167 58.6786C71.3326 59.4757 71.6934 60.4428 71.3877 61.4052C71.2961 61.6956 71.1326 61.956 70.9135 62.1603C70.0479 62.9586 69.185 62.3583 68.3026 62.3053C67.0898 62.2324 66.0005 63.2501 65.609 64.4423C65.2175 65.6344 65.3898 66.9469 65.7059 68.1629C65.9468 68.8946 66.0986 69.6546 66.1579 70.4253C66.2098 71.211 65.8659 71.9686 65.2488 72.428C64.491 72.9028 63.4957 72.628 62.7374 72.1539C61.9791 71.6798 61.3239 71.0206 60.5048 70.6717C59.6857 70.3228 58.5852 70.4002 58.1085 71.1738C57.957 71.4553 57.8544 71.7622 57.8055 72.0805C57.3781 74.0991 57.4764 73.9803 57.049 75.9989V75.9989Z" fill="#2F2E41"/>
<path fill-rule="evenodd" clip-rule="evenodd" d="M123.674 64H180.326C183.734 63.9961 186.496 61.2092 186.5 57.7702V11.2298C186.496 7.79079 183.734 5.00387 180.326 5H123.674C120.266 5.00387 117.504 7.79079 117.5 11.2298V57.7702C117.504 61.2092 120.266 63.9961 123.674 64ZM118.226 11.2298C118.23 8.19539 120.667 5.73635 123.674 5.73292H180.326C183.333 5.73635 185.77 8.19539 185.774 11.2298V57.7702C185.77 60.8046 183.333 63.2636 180.326 63.2671H123.674C120.667 63.2636 118.23 60.8046 118.226 57.7702V11.2298Z" fill="#3F3D56"/>
<path d="M174.531 18.9998H145.524C144.995 19.0109 144.548 18.5974 144.501 18.0537C144.487 17.7795 144.583 17.5114 144.766 17.3121C144.949 17.1129 145.203 17 145.469 17H174.997C175.969 17.8819 175.377 18.9998 174.531 18.9998L174.531 18.9998Z" fill="#CCCCCC"/>
<path d="M174.531 23.9998H145.524C144.995 24.0109 144.548 23.5974 144.501 23.0537C144.487 22.7795 144.583 22.5114 144.766 22.3121C144.949 22.1129 145.203 22 145.469 22H174.997C175.969 22.8819 175.377 23.9998 174.531 23.9998L174.531 23.9998Z" fill="#CCCCCC"/>
<path d="M139.413 26H130.587C129.987 25.9994 129.501 25.5359 129.5 24.964V15.036C129.501 14.4641 129.987 14.0006 130.587 14H139.413C140.013 14.0008 140.499 14.4642 140.5 15.036V24.964C140.499 25.5359 140.013 25.9994 139.413 26Z" fill="#3F3D56"/>
<path d="M174.536 33.9998H130.518C129.992 34.0109 129.548 33.5974 129.501 33.0537C129.487 32.7795 129.582 32.5114 129.764 32.3121C129.946 32.1129 130.199 32 130.464 32H175C175.967 32.8819 175.377 33.9998 174.536 33.9998V33.9998Z" fill="#CCCCCC"/>
<path d="M174.536 38.9998H130.518C129.992 39.0109 129.548 38.5974 129.501 38.0537C129.487 37.7795 129.582 37.5114 129.764 37.3121C129.946 37.1129 130.199 37 130.464 37H175C175.967 37.8819 175.377 38.9998 174.536 38.9998V38.9998Z" fill="#CCCCCC"/>
<path d="M174.536 43.9998H130.518C129.992 44.0109 129.548 43.5974 129.501 43.0537C129.487 42.7795 129.582 42.5114 129.764 42.3121C129.946 42.1129 130.199 42 130.464 42H175C175.967 42.8819 175.377 43.9998 174.536 43.9998V43.9998Z" fill="#CCCCCC"/>
<path d="M174.536 48.9998H130.518C129.992 49.0109 129.548 48.5974 129.501 48.0537C129.487 47.7795 129.582 47.5114 129.764 47.3121C129.946 47.1129 130.199 47 130.464 47H175C175.967 47.8819 175.377 48.9998 174.536 48.9998V48.9998Z" fill="#CCCCCC"/>
<path d="M174.536 53.9998H130.518C129.992 54.0109 129.548 53.5974 129.501 53.0537C129.487 52.7795 129.582 52.5114 129.764 52.3121C129.946 52.1129 130.199 52 130.464 52H175C175.967 52.8819 175.377 53.9998 174.536 53.9998Z" fill="#CCCCCC"/>
<path d="M168.663 0C169.677 0.00109304 170.499 0.775345 170.5 1.73077V7.26923C170.499 8.22466 169.677 8.99891 168.663 9H136.337C135.323 8.99891 134.501 8.22466 134.5 7.26923V1.73077C134.501 0.775345 135.323 0.00109304 136.337 0" fill="#3E7EFF"/>
<path fill-rule="evenodd" clip-rule="evenodd" d="M205.674 121H262.326C265.734 120.996 268.496 118.209 268.5 114.77V68.2298C268.496 64.7908 265.734 62.0039 262.326 62H205.674C202.266 62.0039 199.504 64.7908 199.5 68.2298V114.77C199.504 118.209 202.266 120.996 205.674 121ZM200.226 68.2298C200.23 65.1954 202.667 62.7364 205.674 62.7329H262.326C265.333 62.7364 267.77 65.1954 267.774 68.2298V114.77C267.77 117.805 265.333 120.264 262.326 120.267H205.674C202.667 120.264 200.23 117.805 200.226 114.77V68.2298Z" fill="#3F3D56"/>
<path d="M256.531 75.9998H227.524C226.995 76.0109 226.548 75.5974 226.501 75.0537C226.487 74.7795 226.583 74.5114 226.766 74.3121C226.949 74.1129 227.203 74 227.469 74H256.997C257.969 74.8819 257.377 75.9998 256.531 75.9998L256.531 75.9998Z" fill="#3F3D56"/>
<path d="M256.531 80.9998H227.524C226.995 81.0109 226.548 80.5974 226.501 80.0537C226.487 79.7795 226.583 79.5114 226.766 79.3121C226.949 79.1129 227.203 79 227.469 79H256.997C257.969 79.8819 257.377 80.9998 256.531 80.9998L256.531 80.9998Z" fill="#3F3D56"/>
<path d="M221.413 83H212.587C211.987 82.9994 211.501 82.5359 211.5 81.964V72.036C211.501 71.4641 211.987 71.0006 212.587 71H221.413C222.013 71.0008 222.499 71.4642 222.5 72.036V81.964C222.499 82.5359 222.013 82.9994 221.413 83Z" fill="#CCCCCC"/>
<path d="M256.413 112H247.587C246.987 111.999 246.501 111.524 246.5 110.937V105.063C246.501 104.476 246.987 104.001 247.587 104H256.413C257.013 104.001 257.499 104.476 257.5 105.063V110.937C257.499 111.524 257.013 111.999 256.413 112Z" fill="#3F3D56"/>
<path d="M256.536 90.9998H212.518C211.992 91.0109 211.548 90.5974 211.501 90.0537C211.487 89.7795 211.582 89.5114 211.764 89.3121C211.946 89.1129 212.199 89 212.464 89H257C257.967 89.8819 257.377 90.9998 256.536 90.9998V90.9998Z" fill="#CCCCCC"/>
<path d="M256.536 95.9998H212.518C211.992 96.0109 211.548 95.5974 211.501 95.0537C211.487 94.7795 211.582 94.5114 211.764 94.3121C211.946 94.1129 212.199 94 212.464 94H257C257.967 94.8819 257.377 95.9998 256.536 95.9998V95.9998Z" fill="#CCCCCC"/>
<path d="M256.536 101H212.518C211.992 101.011 211.548 100.597 211.501 100.054C211.487 99.7795 211.582 99.5114 211.764 99.3121C211.946 99.1129 212.199 99 212.464 99H257C257.967 99.8819 257.377 101 256.536 101V101Z" fill="#CCCCCC"/>
<path d="M233.533 106H212.522C211.994 106.011 211.548 105.597 211.501 105.054C211.487 104.78 211.582 104.511 211.765 104.312C211.948 104.113 212.202 104 212.467 104H233.998C234.968 104.882 234.377 106 233.533 106V106Z" fill="#CCCCCC"/>
<path d="M233.533 111H212.522C211.994 111.011 211.548 110.597 211.501 110.054C211.487 109.78 211.582 109.511 211.765 109.312C211.948 109.113 212.202 109 212.467 109H233.998C234.968 109.882 234.377 111 233.533 111Z" fill="#CCCCCC"/>
<path d="M250.663 66H218.337C217.323 65.9989 216.501 65.2247 216.5 64.2692V58.7308C216.501 57.7753 217.323 57.0011 218.337 57H250.663C251.677 57.0011 252.499 57.7753 252.5 58.7308V64.2692C252.499 65.2247 251.677 65.9989 250.663 66Z" fill="#3E7EFF"/>
<path d="M139.137 198H0.862924C0.662487 198 0.5 197.776 0.5 197.5C0.5 197.224 0.662487 197 0.862924 197H139.137C139.338 197 139.5 197.224 139.5 197.5C139.5 197.776 139.338 198 139.137 198Z" fill="#3F3D56"/>
<circle cx="36" cy="8.5" r="2.5" fill="#F2F2F2"/>
<circle cx="36" cy="17.5" r="2.5" fill="#F2F2F2"/>
<circle cx="36" cy="27.5" r="2.5" fill="#F2F2F2"/>
<circle cx="36" cy="36.5" r="2.5" fill="#F2F2F2"/>
<circle cx="46" cy="8.5" r="2.5" fill="#F2F2F2"/>
<circle cx="46" cy="17.5" r="2.5" fill="#F2F2F2"/>
<circle cx="46" cy="27.5" r="2.5" fill="#F2F2F2"/>
<circle cx="46" cy="36.5" r="2.5" fill="#F2F2F2"/>
<circle cx="55" cy="8.5" r="2.5" fill="#F2F2F2"/>
<circle cx="55" cy="17.5" r="2.5" fill="#F2F2F2"/>
<circle cx="55" cy="27.5" r="2.5" fill="#F2F2F2"/>
<circle cx="55" cy="36.5" r="2.5" fill="#F2F2F2"/>
<circle cx="65" cy="8.5" r="2.5" fill="#F2F2F2"/>
<circle cx="65" cy="17.5" r="2.5" fill="#F2F2F2"/>
<circle cx="65" cy="27.5" r="2.5" fill="#F2F2F2"/>
<circle cx="65" cy="36.5" r="2.5" fill="#F2F2F2"/>
<circle cx="75" cy="8.5" r="2.5" fill="#F2F2F2"/>
<circle cx="75" cy="17.5" r="2.5" fill="#F2F2F2"/>
<circle cx="75" cy="27.5" r="2.5" fill="#F2F2F2"/>
<circle cx="75" cy="36.5" r="2.5" fill="#F2F2F2"/>
<circle cx="85" cy="8.5" r="2.5" fill="#F2F2F2"/>
<circle cx="85" cy="17.5" r="2.5" fill="#F2F2F2"/>
<circle cx="85" cy="27.5" r="2.5" fill="#F2F2F2"/>
<circle cx="85" cy="36.5" r="2.5" fill="#F2F2F2"/>
<circle cx="220" cy="138.5" r="2.5" fill="#F2F2F2"/>
<circle cx="220" cy="148.5" r="2.5" fill="#F2F2F2"/>
<circle cx="220" cy="157.5" r="2.5" fill="#F2F2F2"/>
<circle cx="229" cy="138.5" r="2.5" fill="#F2F2F2"/>
<circle cx="229" cy="148.5" r="2.5" fill="#F2F2F2"/>
<circle cx="229" cy="157.5" r="2.5" fill="#F2F2F2"/>
<circle cx="239" cy="138.5" r="2.5" fill="#F2F2F2"/>
<circle cx="239" cy="148.5" r="2.5" fill="#F2F2F2"/>
<circle cx="239" cy="157.5" r="2.5" fill="#F2F2F2"/>
<circle cx="249" cy="138.5" r="2.5" fill="#F2F2F2"/>
<circle cx="249" cy="148.5" r="2.5" fill="#F2F2F2"/>
<circle cx="249" cy="157.5" r="2.5" fill="#F2F2F2"/>
</svg>
