<svg width="236" height="198" viewBox="0 0 236 198" fill="none" xmlns="http://www.w3.org/2000/svg">
<circle cx="122.929" cy="95.2944" r="95.2944" fill="#5FDCB3"/>
<mask id="mask0_893_2657" style="mask-type:alpha" maskUnits="userSpaceOnUse" x="27" y="0" width="192" height="191">
<circle cx="122.929" cy="95.2944" r="95.2944" fill="white"/>
</mask>
<g mask="url(#mask0_893_2657)">
</g>
<path fill-rule="evenodd" clip-rule="evenodd" d="M146.177 59.5854L120.327 94.1196L19.2998 71.4931C13.291 97.7606 17.4877 126.28 33.2795 150.597C40.9533 162.414 50.6474 172.133 61.6201 179.599L126.298 93.7116C126.298 93.7116 134.655 78.0735 146.177 59.5854Z" fill="#FBB0BF"/>
<path fill-rule="evenodd" clip-rule="evenodd" d="M65.1897 172.427C96.3969 195.982 140.455 198.702 175.393 176.013C219.918 147.098 232.768 87.8646 204.095 43.7114C197.723 33.8999 189.837 25.6587 180.936 19.0916L123.442 96.1734L65.1897 172.427Z" fill="#EF8354"/>
<path fill-rule="evenodd" clip-rule="evenodd" d="M100.726 189.041C108.051 190.834 115.706 191.785 123.582 191.785C176.512 191.785 219.42 148.852 219.42 95.8923C219.42 42.9324 176.512 0 123.582 0C123.224 0 122.866 0.00196568 122.509 0.00588684L124.001 95.8922L100.726 189.041Z" fill="#3E7EFF"/>
<path fill-rule="evenodd" clip-rule="evenodd" d="M100.726 189.041C108.051 190.834 115.706 191.785 123.582 191.785C176.512 191.785 219.42 148.852 219.42 95.8923C219.42 42.9324 176.512 0 123.582 0C123.224 0 122.866 0.00196568 122.509 0.00588684L124.001 95.8922L100.726 189.041Z" fill="black" fill-opacity="0.25"/>
<path fill-rule="evenodd" clip-rule="evenodd" d="M190.834 164.21C208.48 146.818 219.42 122.633 219.42 95.8923C219.42 42.9324 176.512 0 123.582 0C123.221 0 122.861 0.00199772 122.501 0.00598271L122.929 33.9608L142.47 39.8792L147.196 118.355L190.834 164.21Z" fill="#3E7EFF"/>
<circle cx="123.527" cy="95.8922" r="66.46" fill="white"/>
</svg>
