<?xml version="1.0" encoding="UTF-8"?>
<!DOCTYPE svg PUBLIC "-//W3C//DTD SVG 1.1//EN" "http://www.w3.org/Graphics/SVG/1.1/DTD/svg11.dtd">
<!-- Creator: CorelDRAW X6 -->
<svg xmlns="http://www.w3.org/2000/svg" xml:space="preserve" width="112.292mm" height="43.866mm" version="1.1" style="shape-rendering:geometricPrecision; text-rendering:geometricPrecision; image-rendering:optimizeQuality; fill-rule:evenodd; clip-rule:evenodd"
viewBox="0 0 194 76"
 xmlns:xlink="http://www.w3.org/1999/xlink">
 <defs>
  <style type="text/css">
   <![CDATA[
    .fil0 {fill:#60AAAB}
   ]]>
  </style>
 </defs>
 <g id="Layer_x0020_1">
  <metadata id="CorelCorpID_0Corel-Layer"/>
  <path class="fil0" d="M0 0l194 0 0 76 -194 0 0 -76zm14 50l0 0 0 0c3,0 7,0 10,0l7 0 0 0c0,0 0,0 0,0 1,0 2,0 3,0 1,0 1,0 2,-1 3,-1 6,-4 7,-7 0,0 0,0 0,0 1,-2 1,-5 1,-7 0,-1 0,-2 0,-2 0,-1 0,-1 -1,-2 -1,-2 -2,-3 -3,-4 0,0 0,0 0,0l-1 -1c-1,-1 -3,-2 -5,-2 -3,0 -6,0 -8,1 -1,1 -2,2 -4,3l0 -11 -8 0 0 34zm19 -21c5,0 9,4 9,9 0,5 -4,9 -9,9 -5,0 -9,-4 -9,-9 0,-5 4,-9 9,-9zm34 31l11 0 0 -5 -9 0 -2 5zm114 -5l0 5 -91 0 0 -5 91 0zm-123 0l-2 5 -43 0 0 -5 45 0zm105 -4l-5 0 0 -27 5 0 0 3c1,-1 2,-2 3,-3 1,-1 3,-1 4,-1 4,0 6,1 8,3 2,2 3,5 3,9l0 16 -5 0 0 -14c0,-3 -1,-5 -2,-6 -1,-1 -3,-2 -5,-2 -2,0 -4,1 -5,2 -1,2 -2,4 -2,8l0 12zm-48 0l0 -36 5 0 0 36 -5 0zm-28 -3l0 12 -5 0 0 -36 5 0 0 3c1,-1 3,-2 4,-3 2,-1 3,-1 5,-1 4,0 8,1 10,4 3,3 4,6 4,10 0,2 0,4 -1,5 -1,2 -2,3 -3,5 -1,1 -3,2 -4,3 -2,1 -3,1 -6,1 -2,0 -4,0 -5,-1 -2,-1 -3,-2 -4,-3zm0 -11c0,3 1,5 3,7 2,2 4,3 6,3 3,0 5,-1 7,-3 2,-2 3,-4 3,-7 0,-3 -1,-5 -3,-7 -2,-2 -4,-3 -7,-3 -2,0 -5,1 -6,3 -2,2 -3,4 -3,7zm-33 -13l5 0 7 20 8 -20 5 0 -15 36 -5 0 4 -10 -10 -26zm94 27l0 -3c-1,1 -3,2 -4,3 -2,1 -3,1 -5,1 -4,0 -7,-1 -10,-4 -3,-3 -4,-6 -4,-10 0,-2 0,-4 1,-5 1,-2 2,-3 3,-5 1,-1 3,-2 4,-3 2,-1 3,-1 6,-1 2,0 4,0 5,1 2,1 3,2 4,3l0 -3 5 0 0 27 -5 0zm-18 -14c0,3 1,5 3,7 2,2 4,3 7,3 2,0 5,-1 6,-3 2,-2 3,-4 3,-7 0,-3 -1,-5 -3,-7 -2,-2 -4,-3 -6,-3 -3,0 -5,1 -7,3 -2,2 -3,4 -3,7zm-79 -22l0 36 0 0 0 0 -37 0 0 0 0 0 0 -36 0 0 0 0 37 0 0 0 0 0z"/>
 </g>
</svg>
