<svg width="18" height="19" viewBox="0 0 18 19" fill="none" xmlns="http://www.w3.org/2000/svg">
<path d="M17.3082 14.7751C17.3082 15.0751 17.2415 15.3834 17.0998 15.6834C16.9582 15.9834 16.7748 16.2667 16.5332 16.5334C16.1248 16.9834 15.6748 17.3084 15.1665 17.5167C14.6665 17.7251 14.1248 17.8334 13.5415 17.8334C12.6915 17.8334 11.7832 17.6334 10.8248 17.2251C9.8665 16.8167 8.90817 16.2667 7.95817 15.5751C6.99984 14.8751 6.0915 14.1001 5.22484 13.2417C4.3665 12.3751 3.5915 11.4667 2.89984 10.5167C2.2165 9.56675 1.6665 8.61675 1.2665 7.67508C0.866504 6.72508 0.666504 5.81675 0.666504 4.95008C0.666504 4.38341 0.766504 3.84175 0.966504 3.34175C1.1665 2.83341 1.48317 2.36675 1.92484 1.95008C2.45817 1.42508 3.0415 1.16675 3.65817 1.16675C3.8915 1.16675 4.12484 1.21675 4.33317 1.31675C4.54984 1.41675 4.7415 1.56675 4.8915 1.78341L6.82484 4.50842C6.97484 4.71675 7.08317 4.90841 7.15817 5.09175C7.23317 5.26675 7.27484 5.44175 7.27484 5.60008C7.27484 5.80008 7.2165 6.00008 7.09984 6.19175C6.9915 6.38341 6.83317 6.58341 6.63317 6.78341L5.99984 7.44175C5.90817 7.53341 5.8665 7.64175 5.8665 7.77508C5.8665 7.84175 5.87484 7.90008 5.8915 7.96675C5.9165 8.03341 5.9415 8.08341 5.95817 8.13341C6.10817 8.40841 6.3665 8.76675 6.73317 9.20008C7.10817 9.63342 7.50817 10.0751 7.9415 10.5167C8.3915 10.9584 8.82484 11.3667 9.2665 11.7417C9.69984 12.1084 10.0582 12.3584 10.3415 12.5084C10.3832 12.5251 10.4332 12.5501 10.4915 12.5751C10.5582 12.6001 10.6248 12.6084 10.6998 12.6084C10.8415 12.6084 10.9498 12.5584 11.0415 12.4667L11.6748 11.8417C11.8832 11.6334 12.0832 11.4751 12.2748 11.3751C12.4665 11.2584 12.6582 11.2001 12.8665 11.2001C13.0248 11.2001 13.1915 11.2334 13.3748 11.3084C13.5582 11.3834 13.7498 11.4917 13.9582 11.6334L16.7165 13.5917C16.9332 13.7417 17.0832 13.9167 17.1748 14.1251C17.2582 14.3334 17.3082 14.5417 17.3082 14.7751Z" stroke="white" stroke-miterlimit="10"/>
<path d="M14.4167 7.00016C14.4167 6.50016 14.025 5.7335 13.4417 5.1085C12.9083 4.5335 12.2 4.0835 11.5 4.0835" stroke="white" stroke-linecap="round" stroke-linejoin="round"/>
<path d="M17.3333 7.00008C17.3333 3.77508 14.725 1.16675 11.5 1.16675" stroke="white" stroke-linecap="round" stroke-linejoin="round"/>
</svg>
