<svg width="24" height="24" viewBox="0 0 24 24" fill="none" xmlns="http://www.w3.org/2000/svg">
<g clip-path="url(#clip0_617_15328)">
<path d="M14.051 2.43788C14.051 3.78408 12.9596 4.87556 11.6133 4.87556C10.2669 4.87556 9.1756 3.78408 9.1756 2.43788C9.1756 1.09154 10.2669 0 11.6133 0C12.9596 0 14.051 1.09148 14.051 2.43788Z" fill="#1A1818"/>
<path d="M17.2142 13.3497C17.1271 12.8272 16.3437 8.03892 16.1697 7.22635C15.7344 5.22388 13.9642 5.22388 13.0065 5.22388H10.1915C9.2338 5.22388 7.46349 5.22388 7.02829 7.22635C6.88294 8.03892 6.09952 12.8273 6.01246 13.3497C5.92542 13.93 6.30275 14.4815 6.88313 14.5686C7.46349 14.6556 8.01493 14.2783 8.10199 13.6979C8.30524 12.4501 8.79854 9.3448 9.03076 8.12593C9.0597 8.03889 9.1178 7.98079 9.20485 7.98079C9.2919 7.98079 9.37894 8.06784 9.37894 8.15488L7.92791 17.2964H9.03075V22.9264C9.03075 23.5067 9.49512 24.0001 10.1045 24.0001C10.714 24.0001 11.1782 23.5357 11.1782 22.9264V17.2964H12.0778V22.9264C12.0778 23.5067 12.5421 24.0001 13.1515 24.0001C13.761 24.0001 14.2252 23.5357 14.2252 22.9264V17.2964H15.328L13.877 8.15488C13.877 8.06784 13.964 7.98079 14.0511 7.98079C14.1381 7.98079 14.1962 8.03889 14.2252 8.12593C14.4574 9.3448 14.9507 12.4501 15.1539 13.6979C15.241 14.2202 15.6762 14.5975 16.1987 14.5975H16.3728C16.8952 14.4813 17.3015 13.9298 17.2142 13.3495L17.2142 13.3497Z" fill="#1A1818"/>
</g>
<defs>
<clipPath id="clip0_617_15328">
<rect width="24" height="24" fill="white"/>
</clipPath>
</defs>
</svg>
