<svg width="14" height="15" viewBox="0 0 14 15" fill="none" xmlns="http://www.w3.org/2000/svg">
<path d="M10 4.94H4C3.72386 4.94 3.5 5.16386 3.5 5.44C3.5 5.71614 3.72386 5.94 4 5.94H10C10.2761 5.94 10.5 5.71614 10.5 5.44C10.5 5.16386 10.2761 4.94 10 4.94Z" fill="white"/>
<path fill-rule="evenodd" clip-rule="evenodd" d="M10.2599 1.87999H10.3333C12.1742 1.87999 13.6666 3.37237 13.6666 5.21332V11.2133C13.6666 13.0543 12.1742 14.5467 10.3333 14.5467H3.66659C2.78253 14.5467 1.93468 14.1955 1.30956 13.5703C0.684441 12.9452 0.333252 12.0974 0.333252 11.2133V5.21332C0.333252 3.37237 1.82564 1.87999 3.66659 1.87999H3.72659V1.83332V0.666656C3.72659 0.390514 3.95044 0.166656 4.22659 0.166656C4.50273 0.166656 4.72659 0.390514 4.72659 0.666656V1.83332V1.87999H9.25992V1.83332V0.666656C9.25992 0.390514 9.48378 0.166656 9.75992 0.166656C10.0361 0.166656 10.2599 0.390514 10.2599 0.666656V1.83332V1.87999ZM10.3333 13.5467C11.6219 13.5467 12.6666 12.502 12.6666 11.2133V5.21332C12.6666 3.92466 11.6219 2.87999 10.3333 2.87999H3.66659C2.37792 2.87999 1.33325 3.92466 1.33325 5.21332V11.2133C1.33325 12.502 2.37792 13.5467 3.66659 13.5467H10.3333Z" fill="white"/>
</svg>
