<svg width="24" height="24" viewBox="0 0 24 24" fill="none" xmlns="http://www.w3.org/2000/svg">
<path fill-rule="evenodd" clip-rule="evenodd" d="M19.9382 7.66957C18.512 4.24494 15.1704 2.01028 11.4607 2.00037C7.46246 1.97932 3.90737 4.5403 2.66105 8.33934C1.41473 12.1384 2.7619 16.3076 5.99559 18.6591C9.22927 21.0105 13.6107 21.007 16.8407 18.6504L19.7207 21.5304C20.0135 21.8228 20.4878 21.8228 20.7807 21.5304C21.0731 21.2376 21.0731 20.7632 20.7807 20.4704L17.9907 17.6804C20.5968 15.0402 21.3644 11.0942 19.9382 7.66957ZM18.6011 14.1693C17.4036 17.055 14.5849 18.9344 11.4607 18.9304V18.8904C7.22037 18.885 3.77812 15.4606 3.75066 11.2204C3.74662 8.09611 5.62605 5.27742 8.51172 4.07994C11.3974 2.88247 14.7203 3.54232 16.9295 5.75152C19.1387 7.96071 19.7986 11.2836 18.6011 14.1693Z" fill="#545454"/>
</svg>
