<svg width="432" height="48" viewBox="0 0 432 48" fill="none" xmlns="http://www.w3.org/2000/svg">
<rect x="0.5" y="0.5" width="431" height="47" rx="7.5" fill="white"/>
<path fill-rule="evenodd" clip-rule="evenodd" d="M35.9382 19.6695C34.512 16.2448 31.1704 14.0102 27.4607 14.0003C23.4625 13.9792 19.9074 16.5402 18.661 20.3392C17.4147 24.1383 18.7619 28.3075 21.9956 30.6589C25.2293 33.0104 29.6107 33.0069 32.8407 30.6503L35.7207 33.5303C36.0135 33.8227 36.4878 33.8227 36.7807 33.5303C37.0731 33.2374 37.0731 32.7631 36.7807 32.4703L33.9907 29.6803C36.5968 27.0401 37.3644 23.0941 35.9382 19.6695ZM34.6011 26.1692C33.4036 29.0549 30.5849 30.9343 27.4607 30.9303V30.8903C23.2204 30.8848 19.7781 27.4605 19.7507 23.2203C19.7466 20.096 21.626 17.2773 24.5117 16.0798C27.3974 14.8823 30.7203 15.5422 32.9295 17.7514C35.1387 19.9606 35.7986 23.2835 34.6011 26.1692Z" fill="#545454"/>
<path d="M58.5391 17.625V31.1094H57.375V17.625H58.5391Z" fill="#111111"/>
<rect x="0.5" y="0.5" width="431" height="47" rx="7.5" stroke="#38A8A8"/>
</svg>
